<?xml version="1.0" encoding="utf-8"?>
<!-- Generator: Adobe Illustrator 28.0.0, SVG Export Plug-In . SVG Version: 6.00 Build 0)  -->
<svg version="1.1" id="图层_1" xmlns="http://www.w3.org/2000/svg" xmlns:xlink="http://www.w3.org/1999/xlink" x="0px" y="0px"
	 viewBox="0 0 1391.38 131.23" style="enable-background:new 0 0 1391.38 131.23;" xml:space="preserve">
<style type="text/css">
	.st0{fill:#040000;}
	.st1{fill:none;stroke:#A49067;stroke-width:4;stroke-miterlimit:10;}
	.st2{fill:#A49067;}
	.st3{fill:none;stroke:#040000;stroke-width:4;stroke-miterlimit:10;}
	.st4{fill:none;stroke:#040000;stroke-width:3;stroke-linecap:round;stroke-linejoin:round;stroke-miterlimit:10;}
</style>
<g>
	<g>
		<path class="st0" d="M241.1,112.43c0,0.17-0.05,0.31-0.16,0.45c-0.11,0.13-0.29,0.24-0.54,0.32c-0.25,0.08-0.59,0.15-1.01,0.2
			c-0.42,0.05-0.95,0.07-1.6,0.07c-0.66,0-1.2-0.02-1.63-0.07c-0.43-0.05-0.77-0.12-1.01-0.2c-0.25-0.08-0.42-0.19-0.53-0.32
			c-0.11-0.13-0.17-0.28-0.17-0.45V99.47h-12.27v12.96c0,0.17-0.05,0.31-0.15,0.45c-0.1,0.13-0.28,0.24-0.53,0.32
			c-0.25,0.08-0.59,0.15-1.01,0.2c-0.42,0.05-0.96,0.07-1.62,0.07c-0.64,0-1.18-0.02-1.61-0.07c-0.43-0.05-0.77-0.12-1.03-0.2
			c-0.25-0.08-0.44-0.19-0.54-0.32c-0.11-0.13-0.16-0.28-0.16-0.45V82.15c0-0.16,0.05-0.31,0.16-0.45s0.29-0.24,0.54-0.32
			c0.25-0.08,0.6-0.15,1.03-0.2c0.43-0.05,0.97-0.07,1.61-0.07c0.66,0,1.2,0.02,1.62,0.07c0.42,0.05,0.76,0.12,1.01,0.2
			c0.25,0.08,0.43,0.19,0.53,0.32s0.15,0.28,0.15,0.45v11.77h12.27V82.15c0-0.16,0.05-0.31,0.17-0.45c0.11-0.13,0.29-0.24,0.53-0.32
			c0.24-0.08,0.58-0.15,1.01-0.2s0.98-0.07,1.63-0.07c0.64,0,1.17,0.02,1.6,0.07s0.76,0.12,1.01,0.2c0.25,0.08,0.44,0.19,0.54,0.32
			s0.16,0.28,0.16,0.45V112.43z"/>
		<path class="st0" d="M270.83,100.78c0,0.76-0.17,1.32-0.52,1.68c-0.35,0.36-0.82,0.55-1.43,0.55h-13.76c0,0.94,0.11,1.8,0.34,2.56
			s0.59,1.42,1.09,1.96c0.5,0.54,1.14,0.95,1.93,1.23c0.79,0.28,1.73,0.42,2.83,0.42c1.12,0,2.1-0.08,2.94-0.24s1.58-0.33,2.19-0.52
			c0.62-0.19,1.13-0.36,1.53-0.52c0.41-0.16,0.73-0.24,0.99-0.24c0.15,0,0.28,0.03,0.38,0.09c0.1,0.06,0.19,0.16,0.25,0.31
			c0.07,0.15,0.11,0.36,0.14,0.63c0.03,0.27,0.04,0.62,0.04,1.03c0,0.36-0.01,0.67-0.03,0.93c-0.02,0.26-0.04,0.48-0.08,0.66
			c-0.03,0.18-0.08,0.33-0.15,0.46c-0.07,0.12-0.16,0.24-0.27,0.36s-0.41,0.27-0.9,0.47c-0.49,0.2-1.12,0.39-1.88,0.58
			c-0.76,0.19-1.63,0.35-2.61,0.5c-0.98,0.14-2.03,0.21-3.14,0.21c-2.01,0-3.77-0.25-5.28-0.74c-1.51-0.5-2.78-1.25-3.79-2.25
			c-1.01-1.01-1.77-2.28-2.27-3.81c-0.5-1.54-0.75-3.34-0.75-5.4c0-1.97,0.26-3.74,0.79-5.31c0.52-1.58,1.28-2.91,2.28-4.01
			s2.21-1.94,3.64-2.51c1.43-0.58,3.04-0.87,4.83-0.87c1.89,0,3.51,0.27,4.85,0.82c1.34,0.55,2.45,1.3,3.31,2.27
			c0.86,0.97,1.5,2.11,1.9,3.43s0.61,2.76,0.61,4.31V100.78z M264.65,99c0.05-1.75-0.31-3.12-1.08-4.12c-0.77-1-1.96-1.5-3.56-1.5
			c-0.81,0-1.52,0.15-2.12,0.45c-0.6,0.3-1.1,0.7-1.5,1.2c-0.4,0.5-0.7,1.1-0.91,1.78s-0.33,1.42-0.37,2.19H264.65z"/>
		<path class="st0" d="M297.42,112.55c0,0.23-0.08,0.41-0.25,0.54c-0.17,0.13-0.44,0.23-0.8,0.29c-0.36,0.06-0.9,0.09-1.61,0.09
			c-0.76,0-1.31-0.03-1.66-0.09c-0.35-0.06-0.59-0.15-0.74-0.29c-0.14-0.13-0.22-0.31-0.22-0.54v-1.76
			c-0.93,0.97-1.99,1.73-3.18,2.28s-2.51,0.82-3.97,0.82c-1.2,0-2.3-0.15-3.31-0.46c-1.01-0.3-1.88-0.76-2.61-1.36
			c-0.74-0.6-1.31-1.35-1.71-2.24c-0.41-0.89-0.61-1.93-0.61-3.12c0-1.29,0.26-2.41,0.77-3.36c0.52-0.95,1.28-1.73,2.31-2.35
			s2.29-1.08,3.81-1.38c1.52-0.3,3.29-0.45,5.3-0.45h2.21v-1.34c0-0.69-0.07-1.3-0.21-1.82c-0.14-0.52-0.38-0.95-0.71-1.3
			c-0.33-0.35-0.77-0.6-1.32-0.77c-0.55-0.17-1.23-0.25-2.04-0.25c-1.06,0-2.02,0.12-2.85,0.35s-1.58,0.49-2.22,0.77
			c-0.64,0.28-1.18,0.54-1.61,0.77c-0.43,0.23-0.78,0.35-1.05,0.35c-0.19,0-0.35-0.06-0.49-0.17c-0.14-0.12-0.26-0.28-0.35-0.5
			s-0.16-0.48-0.22-0.79S278,93.81,278,93.42c0-0.51,0.04-0.92,0.13-1.21c0.08-0.3,0.24-0.57,0.48-0.8s0.65-0.5,1.24-0.79
			c0.59-0.29,1.28-0.56,2.08-0.8c0.79-0.25,1.66-0.45,2.6-0.61c0.94-0.16,1.91-0.24,2.9-0.24c1.77,0,3.29,0.17,4.55,0.51
			c1.26,0.34,2.29,0.86,3.1,1.56c0.81,0.7,1.4,1.61,1.77,2.71c0.37,1.11,0.56,2.42,0.56,3.94V112.55z M291.16,103.09h-2.43
			c-1.03,0-1.91,0.07-2.64,0.22s-1.32,0.37-1.77,0.67c-0.46,0.3-0.79,0.66-1,1.08c-0.21,0.42-0.32,0.9-0.32,1.45
			c0,0.93,0.3,1.65,0.9,2.18s1.43,0.79,2.5,0.79c0.9,0,1.72-0.22,2.47-0.67c0.75-0.45,1.52-1.1,2.29-1.96V103.09z"/>
		<path class="st0" d="M326.67,90.35c0,0.08,0,0.18-0.01,0.3c-0.01,0.12-0.03,0.24-0.05,0.38c-0.03,0.14-0.06,0.3-0.1,0.48
			c-0.04,0.18-0.1,0.39-0.17,0.62l-6.79,19.99c-0.08,0.28-0.2,0.51-0.34,0.68c-0.14,0.17-0.38,0.31-0.71,0.41
			c-0.33,0.1-0.78,0.17-1.34,0.2c-0.57,0.03-1.31,0.05-2.22,0.05c-0.9,0-1.63-0.02-2.19-0.06s-1.01-0.11-1.33-0.21
			c-0.32-0.1-0.55-0.24-0.7-0.41c-0.14-0.17-0.26-0.39-0.34-0.66l-6.79-19.99c-0.1-0.33-0.18-0.63-0.24-0.89
			c-0.06-0.26-0.09-0.45-0.1-0.57c-0.01-0.12-0.01-0.22-0.01-0.32c0-0.17,0.05-0.31,0.14-0.43c0.09-0.12,0.26-0.23,0.49-0.31
			c0.24-0.08,0.56-0.14,0.98-0.17c0.41-0.03,0.93-0.05,1.56-0.05c0.69,0,1.25,0.02,1.67,0.06s0.76,0.1,1,0.17
			c0.24,0.07,0.42,0.18,0.52,0.32c0.1,0.14,0.19,0.31,0.25,0.51l5.15,16.23l0.15,0.62l0.15-0.62l5.07-16.23
			c0.05-0.2,0.13-0.37,0.24-0.51c0.11-0.14,0.28-0.25,0.52-0.32c0.24-0.08,0.55-0.13,0.95-0.17c0.4-0.04,0.92-0.06,1.56-0.06
			c0.62,0,1.14,0.02,1.53,0.05c0.4,0.03,0.71,0.09,0.93,0.17c0.22,0.08,0.37,0.19,0.46,0.31C326.63,90.04,326.67,90.19,326.67,90.35
			z"/>
		<path class="st0" d="M345.6,113.32l-2.74,7.83c-0.15,0.41-0.57,0.71-1.24,0.89s-1.66,0.27-2.97,0.27c-0.68,0-1.22-0.03-1.62-0.09
			c-0.41-0.06-0.71-0.15-0.91-0.29c-0.2-0.13-0.31-0.3-0.33-0.5s0.03-0.44,0.15-0.72l3.02-7.41c-0.22-0.1-0.42-0.25-0.6-0.46
			c-0.18-0.21-0.31-0.42-0.39-0.66l-7.78-20.31c-0.22-0.58-0.33-1.02-0.33-1.33s0.1-0.55,0.3-0.72c0.2-0.17,0.54-0.29,1.03-0.36
			c0.48-0.07,1.12-0.1,1.91-0.1c0.73,0,1.3,0.01,1.72,0.04c0.42,0.02,0.75,0.09,0.99,0.19c0.24,0.1,0.41,0.25,0.53,0.46
			c0.12,0.21,0.24,0.5,0.36,0.88l5.32,14.79h0.08l4.87-15.09c0.1-0.43,0.23-0.71,0.39-0.85c0.16-0.14,0.43-0.24,0.8-0.31
			c0.37-0.07,1.02-0.1,1.95-0.1c0.73,0,1.33,0.03,1.81,0.1c0.48,0.07,0.84,0.19,1.06,0.37c0.23,0.18,0.34,0.42,0.34,0.73
			s-0.07,0.67-0.2,1.08L345.6,113.32z"/>
		<path class="st0" d="M386.35,110.29c0,0.73-0.05,1.29-0.14,1.67s-0.21,0.66-0.37,0.82s-0.38,0.3-0.67,0.42s-0.64,0.23-1.04,0.32
			c-0.4,0.09-0.83,0.16-1.29,0.21c-0.46,0.05-0.93,0.08-1.41,0.08c-1.27,0-2.37-0.16-3.3-0.47c-0.93-0.31-1.7-0.8-2.31-1.45
			c-0.61-0.65-1.06-1.47-1.34-2.46c-0.29-0.99-0.43-2.16-0.43-3.52V94.59h-2.71c-0.32,0-0.57-0.19-0.73-0.58
			c-0.17-0.39-0.25-1.04-0.25-1.95c0-0.48,0.02-0.88,0.06-1.21c0.04-0.33,0.11-0.59,0.19-0.78c0.08-0.19,0.19-0.33,0.32-0.41
			c0.13-0.08,0.27-0.12,0.44-0.12h2.69v-4.93c0-0.17,0.05-0.31,0.14-0.45c0.09-0.13,0.26-0.24,0.51-0.33
			c0.24-0.09,0.57-0.16,0.99-0.2s0.92-0.06,1.53-0.06c0.62,0,1.14,0.02,1.56,0.06s0.74,0.11,0.98,0.2c0.24,0.09,0.41,0.2,0.51,0.33
			c0.1,0.13,0.15,0.28,0.15,0.45v4.93h4.92c0.17,0,0.32,0.04,0.44,0.12c0.13,0.08,0.23,0.22,0.32,0.41
			c0.08,0.19,0.15,0.45,0.19,0.78c0.04,0.33,0.06,0.74,0.06,1.21c0,0.91-0.08,1.56-0.25,1.95c-0.17,0.39-0.41,0.58-0.73,0.58h-4.94
			v10.38c0,1.21,0.19,2.11,0.58,2.71c0.39,0.6,1.08,0.9,2.08,0.9c0.34,0,0.64-0.03,0.91-0.09c0.27-0.06,0.51-0.12,0.72-0.2
			c0.21-0.07,0.39-0.14,0.53-0.2c0.14-0.06,0.27-0.09,0.39-0.09c0.1,0,0.2,0.03,0.29,0.09c0.09,0.06,0.16,0.17,0.21,0.35
			c0.05,0.17,0.1,0.41,0.14,0.71C386.33,109.45,386.35,109.83,386.35,110.29z"/>
		<path class="st0" d="M413.93,100.78c0,0.76-0.17,1.32-0.52,1.68c-0.35,0.36-0.82,0.55-1.43,0.55h-13.76c0,0.94,0.11,1.8,0.34,2.56
			c0.23,0.77,0.59,1.42,1.09,1.96c0.5,0.54,1.14,0.95,1.93,1.23c0.79,0.28,1.73,0.42,2.83,0.42c1.12,0,2.09-0.08,2.94-0.24
			s1.58-0.33,2.19-0.52c0.62-0.19,1.13-0.36,1.53-0.52c0.41-0.16,0.73-0.24,0.99-0.24c0.15,0,0.28,0.03,0.38,0.09
			c0.1,0.06,0.19,0.16,0.25,0.31c0.07,0.15,0.11,0.36,0.14,0.63s0.04,0.62,0.04,1.03c0,0.36-0.01,0.67-0.03,0.93
			c-0.02,0.26-0.04,0.48-0.08,0.66c-0.03,0.18-0.08,0.33-0.15,0.46s-0.16,0.24-0.27,0.36c-0.11,0.12-0.41,0.27-0.9,0.47
			s-1.12,0.39-1.88,0.58c-0.76,0.19-1.63,0.35-2.61,0.5c-0.98,0.14-2.03,0.21-3.14,0.21c-2.01,0-3.77-0.25-5.29-0.74
			c-1.51-0.5-2.78-1.25-3.79-2.25c-1.01-1.01-1.77-2.28-2.27-3.81c-0.5-1.54-0.75-3.34-0.75-5.4c0-1.97,0.26-3.74,0.79-5.31
			c0.52-1.58,1.28-2.91,2.28-4.01c1-1.1,2.21-1.94,3.64-2.51s3.04-0.87,4.83-0.87c1.89,0,3.51,0.27,4.85,0.82
			c1.34,0.55,2.45,1.3,3.31,2.27c0.86,0.97,1.5,2.11,1.9,3.43c0.41,1.32,0.61,2.76,0.61,4.31V100.78z M407.74,99
			c0.05-1.75-0.31-3.12-1.08-4.12c-0.77-1-1.96-1.5-3.56-1.5c-0.81,0-1.52,0.15-2.12,0.45c-0.6,0.3-1.1,0.7-1.5,1.2
			s-0.7,1.1-0.91,1.78c-0.21,0.69-0.33,1.42-0.37,2.19H407.74z"/>
		<path class="st0" d="M440.52,112.55c0,0.23-0.08,0.41-0.25,0.54c-0.17,0.13-0.43,0.23-0.8,0.29c-0.36,0.06-0.9,0.09-1.61,0.09
			c-0.76,0-1.31-0.03-1.66-0.09c-0.35-0.06-0.59-0.15-0.74-0.29c-0.14-0.13-0.22-0.31-0.22-0.54v-1.76
			c-0.93,0.97-1.99,1.73-3.18,2.28s-2.51,0.82-3.97,0.82c-1.2,0-2.3-0.15-3.31-0.46c-1.01-0.3-1.88-0.76-2.61-1.36
			c-0.73-0.6-1.3-1.35-1.71-2.24c-0.41-0.89-0.61-1.93-0.61-3.12c0-1.29,0.26-2.41,0.77-3.36c0.52-0.95,1.28-1.73,2.31-2.35
			s2.29-1.08,3.81-1.38c1.52-0.3,3.29-0.45,5.3-0.45h2.21v-1.34c0-0.69-0.07-1.3-0.22-1.82c-0.14-0.52-0.38-0.95-0.71-1.3
			c-0.33-0.35-0.77-0.6-1.32-0.77s-1.23-0.25-2.04-0.25c-1.06,0-2.02,0.12-2.85,0.35c-0.84,0.23-1.58,0.49-2.22,0.77
			c-0.64,0.28-1.18,0.54-1.61,0.77c-0.43,0.23-0.78,0.35-1.05,0.35c-0.19,0-0.35-0.06-0.49-0.17s-0.26-0.28-0.35-0.5
			s-0.17-0.48-0.22-0.79s-0.08-0.66-0.08-1.04c0-0.51,0.04-0.92,0.13-1.21c0.08-0.3,0.25-0.57,0.48-0.8s0.65-0.5,1.24-0.79
			c0.59-0.29,1.28-0.56,2.08-0.8c0.79-0.25,1.66-0.45,2.6-0.61c0.94-0.16,1.91-0.24,2.9-0.24c1.77,0,3.29,0.17,4.55,0.51
			c1.26,0.34,2.29,0.86,3.1,1.56c0.81,0.7,1.4,1.61,1.77,2.71c0.37,1.11,0.56,2.42,0.56,3.94V112.55z M434.25,103.09h-2.43
			c-1.03,0-1.91,0.07-2.64,0.22s-1.32,0.37-1.77,0.67c-0.46,0.3-0.79,0.66-1,1.08c-0.21,0.42-0.32,0.9-0.32,1.45
			c0,0.93,0.3,1.65,0.9,2.18s1.43,0.79,2.5,0.79c0.89,0,1.72-0.22,2.47-0.67c0.75-0.45,1.52-1.1,2.29-1.96V103.09z"/>
		<path class="st0" d="M484.92,112.48c0,0.17-0.05,0.31-0.15,0.43s-0.27,0.23-0.51,0.31s-0.56,0.14-0.96,0.19s-0.92,0.06-1.55,0.06
			c-0.64,0-1.17-0.02-1.57-0.06c-0.41-0.04-0.73-0.1-0.98-0.19s-0.41-0.19-0.51-0.31s-0.14-0.27-0.14-0.43v-13.1
			c0-0.74-0.07-1.42-0.21-2.03c-0.14-0.61-0.36-1.13-0.66-1.57c-0.3-0.44-0.67-0.78-1.12-1.02c-0.45-0.24-0.98-0.36-1.61-0.36
			c-0.76,0-1.53,0.29-2.31,0.87c-0.78,0.58-1.62,1.42-2.54,2.53v14.69c0,0.17-0.05,0.31-0.15,0.43c-0.1,0.12-0.27,0.23-0.52,0.31
			s-0.57,0.14-0.98,0.19s-0.91,0.06-1.52,0.06c-0.63,0-1.14-0.02-1.55-0.06c-0.41-0.04-0.73-0.1-0.98-0.19s-0.42-0.19-0.52-0.31
			s-0.15-0.27-0.15-0.43v-13.1c0-0.74-0.07-1.42-0.21-2.03c-0.14-0.61-0.36-1.13-0.65-1.57s-0.66-0.78-1.12-1.02
			s-0.99-0.36-1.6-0.36c-0.78,0-1.55,0.29-2.33,0.87s-1.61,1.42-2.51,2.53v14.69c0,0.17-0.05,0.31-0.15,0.43
			c-0.1,0.12-0.28,0.23-0.52,0.31s-0.57,0.14-0.98,0.19c-0.41,0.04-0.92,0.06-1.55,0.06s-1.14-0.02-1.55-0.06
			c-0.41-0.04-0.73-0.1-0.98-0.19s-0.42-0.19-0.52-0.31c-0.1-0.12-0.15-0.27-0.15-0.43v-22.1c0-0.17,0.04-0.31,0.13-0.43
			c0.08-0.12,0.24-0.23,0.46-0.31c0.22-0.08,0.5-0.14,0.85-0.19s0.78-0.06,1.31-0.06c0.54,0,0.99,0.02,1.34,0.06
			c0.36,0.04,0.63,0.1,0.82,0.19c0.19,0.08,0.33,0.19,0.42,0.31s0.13,0.27,0.13,0.43v2.55c1.25-1.32,2.5-2.31,3.74-2.97
			c1.24-0.66,2.54-0.99,3.89-0.99c0.93,0,1.77,0.1,2.51,0.29c0.74,0.19,1.41,0.46,1.99,0.82c0.58,0.36,1.08,0.78,1.51,1.28
			c0.42,0.5,0.78,1.05,1.06,1.66c0.68-0.71,1.34-1.32,1.99-1.83s1.29-0.93,1.93-1.25s1.27-0.56,1.9-0.72
			c0.63-0.16,1.28-0.24,1.94-0.24c1.5,0,2.77,0.25,3.8,0.74c1.03,0.5,1.86,1.17,2.5,2.02s1.09,1.85,1.36,2.99
			c0.27,1.14,0.41,2.34,0.41,3.62V112.48z"/>
		<path class="st0" d="M513.46,112.48c0,0.17-0.05,0.31-0.15,0.43c-0.1,0.12-0.28,0.23-0.52,0.31s-0.57,0.14-0.98,0.19
			c-0.41,0.04-0.92,0.06-1.55,0.06s-1.14-0.02-1.55-0.06c-0.41-0.04-0.73-0.1-0.98-0.19s-0.42-0.19-0.52-0.31
			c-0.1-0.12-0.15-0.27-0.15-0.43V79.9c0-0.17,0.05-0.31,0.15-0.45c0.1-0.13,0.27-0.24,0.52-0.33s0.57-0.16,0.98-0.21
			c0.41-0.05,0.92-0.07,1.55-0.07s1.14,0.03,1.55,0.07c0.41,0.05,0.73,0.12,0.98,0.21s0.42,0.2,0.52,0.33
			c0.1,0.13,0.15,0.28,0.15,0.45V112.48z"/>
		<path class="st0" d="M528.76,82.9c0,1.26-0.26,2.12-0.79,2.6c-0.52,0.48-1.5,0.72-2.92,0.72c-1.44,0-2.4-0.23-2.9-0.69
			c-0.5-0.46-0.75-1.3-0.75-2.5c0-1.25,0.26-2.13,0.77-2.61s1.49-0.73,2.93-0.73c1.42,0,2.38,0.24,2.89,0.71
			S528.76,81.69,528.76,82.9z M528.28,112.48c0,0.17-0.05,0.31-0.15,0.43c-0.1,0.12-0.28,0.23-0.52,0.31s-0.57,0.14-0.98,0.19
			c-0.41,0.04-0.92,0.06-1.55,0.06s-1.14-0.02-1.55-0.06c-0.41-0.04-0.73-0.1-0.98-0.19s-0.42-0.19-0.52-0.31
			c-0.1-0.12-0.15-0.27-0.15-0.43V90.43c0-0.17,0.05-0.31,0.15-0.43c0.1-0.12,0.27-0.23,0.52-0.32c0.25-0.09,0.57-0.16,0.98-0.21
			c0.41-0.05,0.92-0.07,1.55-0.07s1.14,0.02,1.55,0.07c0.41,0.05,0.73,0.12,0.98,0.21c0.25,0.09,0.42,0.2,0.52,0.32
			c0.1,0.12,0.15,0.27,0.15,0.43V112.48z"/>
		<path class="st0" d="M544.33,94.59v17.89c0,0.17-0.05,0.31-0.15,0.43s-0.27,0.23-0.51,0.31c-0.24,0.08-0.57,0.14-0.99,0.19
			c-0.42,0.04-0.94,0.06-1.55,0.06s-1.12-0.02-1.53-0.06s-0.74-0.1-0.99-0.19c-0.25-0.08-0.41-0.19-0.51-0.31
			c-0.09-0.12-0.14-0.27-0.14-0.43V94.59h-2.84c-0.32,0-0.56-0.19-0.72-0.58c-0.16-0.39-0.24-1.04-0.24-1.95
			c0-0.48,0.02-0.88,0.06-1.21c0.04-0.33,0.1-0.59,0.18-0.78c0.08-0.19,0.18-0.33,0.3-0.41c0.13-0.08,0.27-0.12,0.44-0.12h2.81
			v-1.86c0-1.5,0.15-2.82,0.46-3.95c0.3-1.13,0.78-2.07,1.42-2.82c0.64-0.75,1.46-1.32,2.46-1.7s2.18-0.57,3.55-0.57
			c0.66,0,1.31,0.06,1.94,0.17c0.63,0.12,1.1,0.23,1.39,0.35s0.5,0.23,0.62,0.33c0.12,0.11,0.21,0.26,0.28,0.47
			c0.07,0.21,0.11,0.47,0.14,0.79s0.04,0.72,0.04,1.2c0,0.48-0.02,0.86-0.05,1.15s-0.08,0.51-0.15,0.67
			c-0.07,0.16-0.14,0.26-0.23,0.32c-0.08,0.06-0.18,0.09-0.28,0.09c-0.1,0-0.22-0.03-0.37-0.09s-0.32-0.12-0.53-0.19
			c-0.21-0.07-0.46-0.13-0.74-0.19c-0.28-0.06-0.61-0.09-1-0.09c-0.46,0-0.85,0.07-1.18,0.21c-0.33,0.14-0.6,0.36-0.81,0.67
			c-0.21,0.31-0.37,0.7-0.48,1.19c-0.11,0.49-0.16,1.09-0.16,1.8v2.03h8.57v-4.93c0-0.17,0.05-0.31,0.15-0.45
			c0.1-0.13,0.27-0.24,0.51-0.33c0.24-0.09,0.56-0.16,0.98-0.2c0.41-0.04,0.92-0.06,1.53-0.06c0.62,0,1.14,0.02,1.55,0.06
			c0.41,0.04,0.73,0.11,0.98,0.2c0.24,0.09,0.42,0.2,0.52,0.33c0.1,0.13,0.15,0.28,0.15,0.45v4.93h4.92c0.17,0,0.32,0.04,0.44,0.12
			c0.13,0.08,0.23,0.22,0.32,0.41c0.08,0.19,0.15,0.45,0.19,0.78c0.04,0.33,0.06,0.74,0.06,1.21c0,0.91-0.08,1.56-0.25,1.95
			c-0.17,0.39-0.41,0.58-0.73,0.58h-4.94v10.38c0,1.21,0.19,2.11,0.57,2.71c0.38,0.6,1.08,0.9,2.09,0.9c0.34,0,0.64-0.03,0.91-0.09
			c0.27-0.06,0.51-0.12,0.71-0.2c0.2-0.07,0.38-0.14,0.53-0.2c0.15-0.06,0.29-0.09,0.41-0.09c0.1,0,0.19,0.03,0.28,0.09
			c0.08,0.06,0.16,0.17,0.21,0.35c0.06,0.17,0.11,0.41,0.15,0.71c0.04,0.3,0.06,0.68,0.06,1.14c0,0.73-0.05,1.29-0.14,1.68
			c-0.09,0.4-0.22,0.67-0.38,0.82c-0.16,0.15-0.38,0.28-0.67,0.41s-0.63,0.23-1.03,0.32c-0.4,0.09-0.82,0.16-1.28,0.21
			c-0.46,0.05-0.92,0.08-1.39,0.08c-1.29,0-2.39-0.16-3.32-0.47c-0.93-0.31-1.7-0.8-2.31-1.45c-0.61-0.65-1.06-1.47-1.34-2.46
			c-0.29-0.99-0.43-2.16-0.43-3.52V94.59H544.33z"/>
	</g>
</g>
<g>
	<g>
		<path class="st0" d="M255.26,35.71c0,3.8-0.48,7.2-1.45,10.19c-0.97,3-2.4,5.54-4.31,7.63c-1.91,2.09-4.27,3.68-7.08,4.78
			c-2.81,1.1-6.07,1.65-9.76,1.65c-3.65,0-6.83-0.47-9.54-1.4c-2.72-0.93-4.98-2.35-6.79-4.26c-1.81-1.91-3.17-4.34-4.07-7.29
			c-0.91-2.95-1.36-6.44-1.36-10.47c0-3.7,0.48-7.04,1.45-10c0.96-2.96,2.4-5.48,4.31-7.56c1.91-2.08,4.27-3.67,7.08-4.78
			c2.81-1.11,6.08-1.66,9.79-1.66c3.55,0,6.68,0.46,9.4,1.38s4.98,2.34,6.81,4.25s3.2,4.32,4.13,7.24S255.26,31.74,255.26,35.71z
			 M245.26,36.2c0-2.41-0.19-4.59-0.58-6.56c-0.39-1.97-1.04-3.66-1.97-5.06c-0.93-1.4-2.17-2.49-3.71-3.26
			c-1.55-0.77-3.48-1.15-5.79-1.15c-2.34,0-4.3,0.43-5.87,1.29s-2.84,2.01-3.8,3.45c-0.97,1.44-1.65,3.12-2.05,5.04
			c-0.4,1.92-0.6,3.96-0.6,6.11c0,2.5,0.19,4.75,0.58,6.74c0.39,1.99,1.04,3.7,1.96,5.11c0.92,1.42,2.15,2.49,3.69,3.24
			c1.54,0.74,3.49,1.12,5.83,1.12c2.34,0,4.3-0.42,5.87-1.27c1.57-0.85,2.84-2,3.8-3.47s1.65-3.17,2.05-5.11
			C245.06,40.47,245.26,38.4,245.26,36.2z"/>
		<path class="st0" d="M293.93,26.33c0,0.12-0.01,0.26-0.02,0.42s-0.04,0.35-0.07,0.55c-0.04,0.2-0.08,0.43-0.14,0.69
			c-0.06,0.26-0.14,0.55-0.24,0.88l-9.7,28.56c-0.12,0.4-0.28,0.73-0.49,0.97c-0.21,0.25-0.54,0.44-1.01,0.58s-1.11,0.24-1.92,0.28
			c-0.81,0.05-1.87,0.07-3.17,0.07c-1.28,0-2.32-0.03-3.13-0.09c-0.81-0.06-1.44-0.16-1.9-0.3c-0.46-0.14-0.79-0.34-1-0.58
			c-0.21-0.25-0.37-0.56-0.49-0.94l-9.7-28.56c-0.14-0.47-0.26-0.9-0.34-1.27c-0.08-0.38-0.13-0.65-0.15-0.81s-0.02-0.32-0.02-0.46
			c0-0.24,0.07-0.44,0.2-0.62c0.13-0.18,0.37-0.32,0.71-0.44c0.34-0.12,0.8-0.2,1.39-0.25c0.59-0.05,1.33-0.07,2.23-0.07
			c0.99,0,1.79,0.03,2.39,0.09c0.6,0.06,1.08,0.14,1.43,0.25c0.35,0.11,0.6,0.26,0.74,0.46c0.14,0.2,0.27,0.44,0.36,0.73l7.35,23.18
			l0.22,0.88l0.22-0.88l7.24-23.18c0.07-0.28,0.19-0.53,0.34-0.73c0.16-0.2,0.4-0.35,0.74-0.46c0.34-0.11,0.79-0.19,1.36-0.25
			c0.57-0.06,1.31-0.09,2.23-0.09c0.89,0,1.62,0.02,2.19,0.07c0.57,0.05,1.01,0.13,1.32,0.25c0.31,0.12,0.53,0.26,0.65,0.44
			C293.87,25.89,293.93,26.09,293.93,26.33z"/>
		<path class="st0" d="M330.61,41.23c0,1.09-0.25,1.89-0.74,2.41c-0.5,0.52-1.18,0.78-2.05,0.78h-19.66c0,1.34,0.16,2.57,0.49,3.66
			c0.33,1.1,0.84,2.03,1.56,2.79c0.71,0.77,1.63,1.35,2.75,1.75c1.12,0.4,2.47,0.6,4.04,0.6c1.59,0,2.99-0.11,4.2-0.34
			c1.21-0.22,2.25-0.47,3.13-0.74c0.88-0.27,1.61-0.52,2.19-0.74c0.58-0.22,1.05-0.34,1.41-0.34c0.22,0,0.4,0.04,0.54,0.12
			s0.27,0.23,0.36,0.44c0.1,0.21,0.16,0.51,0.2,0.9c0.04,0.39,0.05,0.88,0.05,1.47c0,0.52-0.01,0.96-0.04,1.33
			c-0.02,0.37-0.06,0.68-0.11,0.94s-0.12,0.48-0.22,0.65c-0.1,0.18-0.22,0.35-0.38,0.51c-0.16,0.17-0.59,0.39-1.29,0.67
			c-0.7,0.28-1.59,0.56-2.68,0.83c-1.09,0.27-2.33,0.51-3.73,0.71c-1.4,0.2-2.9,0.3-4.49,0.3c-2.87,0-5.39-0.35-7.55-1.06
			c-2.16-0.71-3.97-1.78-5.41-3.22c-1.45-1.44-2.53-3.26-3.24-5.45c-0.71-2.19-1.07-4.77-1.07-7.71c0-2.81,0.37-5.34,1.12-7.59
			c0.75-2.25,1.83-4.16,3.26-5.73c1.42-1.57,3.16-2.77,5.2-3.59c2.04-0.83,4.34-1.24,6.9-1.24c2.7,0,5.01,0.39,6.93,1.17
			c1.92,0.78,3.49,1.86,4.73,3.24c1.23,1.38,2.14,3.01,2.72,4.9c0.58,1.89,0.87,3.94,0.87,6.16V41.23z M321.77,38.68
			c0.07-2.5-0.44-4.46-1.54-5.89c-1.1-1.43-2.79-2.14-5.09-2.14c-1.16,0-2.17,0.21-3.02,0.64c-0.86,0.42-1.57,1-2.14,1.72
			c-0.57,0.72-1,1.57-1.3,2.55c-0.3,0.98-0.48,2.02-0.53,3.13H321.77z"/>
		<path class="st0" d="M360.33,29.3c0,0.85-0.02,1.55-0.07,2.09c-0.05,0.54-0.12,0.97-0.22,1.27c-0.1,0.31-0.22,0.52-0.38,0.64
			c-0.16,0.12-0.36,0.18-0.6,0.18c-0.19,0-0.41-0.04-0.65-0.12c-0.24-0.08-0.51-0.17-0.81-0.27c-0.3-0.09-0.63-0.18-1-0.26
			c-0.36-0.08-0.76-0.12-1.19-0.12c-0.51,0-1.01,0.1-1.52,0.3c-0.51,0.2-1.03,0.51-1.57,0.94c-0.54,0.42-1.11,0.99-1.7,1.7
			c-0.59,0.71-1.23,1.58-1.9,2.62v19.68c0,0.24-0.07,0.44-0.22,0.62c-0.15,0.18-0.39,0.33-0.74,0.44c-0.35,0.12-0.81,0.21-1.39,0.27
			c-0.58,0.06-1.32,0.09-2.21,0.09c-0.89,0-1.63-0.03-2.21-0.09c-0.58-0.06-1.04-0.15-1.39-0.27c-0.35-0.12-0.6-0.26-0.74-0.44
			c-0.15-0.18-0.22-0.38-0.22-0.62V26.37c0-0.24,0.06-0.44,0.18-0.62c0.12-0.18,0.34-0.32,0.65-0.44c0.31-0.12,0.72-0.21,1.21-0.27
			c0.49-0.06,1.12-0.09,1.87-0.09c0.77,0,1.41,0.03,1.92,0.09c0.51,0.06,0.9,0.15,1.18,0.27c0.28,0.12,0.48,0.27,0.6,0.44
			c0.12,0.18,0.18,0.38,0.18,0.62v3.93c0.84-1.18,1.64-2.15,2.39-2.92s1.46-1.37,2.14-1.82s1.35-0.76,2.03-0.94
			c0.68-0.18,1.35-0.27,2.03-0.27c0.31,0,0.65,0.02,1.01,0.05s0.74,0.09,1.12,0.18c0.39,0.08,0.72,0.18,1.01,0.28
			c0.29,0.11,0.5,0.22,0.63,0.34c0.13,0.12,0.23,0.25,0.29,0.39s0.11,0.34,0.16,0.58c0.05,0.25,0.08,0.62,0.11,1.11
			C360.32,27.78,360.33,28.45,360.33,29.3z"/>
		<path class="st0" d="M415.51,45.72c0,2.29-0.45,4.32-1.34,6.09c-0.89,1.77-2.14,3.26-3.73,4.46c-1.59,1.2-3.5,2.12-5.72,2.74
			c-2.22,0.62-4.65,0.94-7.28,0.94c-1.59,0-3.09-0.11-4.49-0.34c-1.4-0.22-2.64-0.5-3.71-0.83s-1.96-0.67-2.66-1.03
			c-0.7-0.35-1.16-0.62-1.38-0.81c-0.22-0.19-0.38-0.4-0.49-0.64c-0.11-0.24-0.21-0.51-0.29-0.83c-0.08-0.32-0.14-0.72-0.18-1.2
			c-0.04-0.48-0.05-1.07-0.05-1.75c0-1.13,0.1-1.92,0.29-2.35s0.48-0.66,0.87-0.66c0.24,0,0.66,0.16,1.25,0.48
			c0.59,0.32,1.35,0.66,2.26,1.03c0.92,0.37,1.99,0.71,3.22,1.03c1.23,0.32,2.63,0.48,4.2,0.48c1.33,0,2.5-0.15,3.51-0.46
			c1.01-0.31,1.88-0.74,2.59-1.29c0.71-0.55,1.24-1.23,1.59-2.02c0.35-0.79,0.53-1.67,0.53-2.64c0-1.06-0.21-2.02-0.63-2.87
			c-0.42-0.85-1.05-1.58-1.88-2.18s-1.88-1.07-3.15-1.4c-1.27-0.33-2.76-0.5-4.47-0.5h-4.06c-0.31,0-0.58-0.04-0.8-0.12
			c-0.22-0.08-0.4-0.25-0.54-0.51c-0.14-0.26-0.25-0.62-0.31-1.08c-0.06-0.46-0.09-1.06-0.09-1.79c0-0.68,0.03-1.24,0.09-1.68
			c0.06-0.44,0.16-0.77,0.29-1.01c0.13-0.24,0.3-0.4,0.51-0.5c0.21-0.09,0.45-0.14,0.74-0.14h4.09c1.4,0,2.64-0.16,3.73-0.48
			c1.09-0.32,2-0.77,2.73-1.36s1.3-1.3,1.68-2.14c0.39-0.84,0.58-1.76,0.58-2.78c0-0.78-0.13-1.52-0.4-2.21
			c-0.27-0.7-0.66-1.3-1.18-1.8c-0.52-0.51-1.19-0.91-2.01-1.2c-0.82-0.29-1.79-0.44-2.9-0.44c-1.25,0-2.44,0.18-3.55,0.55
			c-1.11,0.37-2.11,0.77-2.99,1.2c-0.88,0.44-1.63,0.84-2.25,1.22c-0.62,0.38-1.07,0.57-1.36,0.57c-0.19,0-0.36-0.04-0.51-0.12
			s-0.27-0.24-0.36-0.48c-0.1-0.24-0.17-0.58-0.22-1.03c-0.05-0.45-0.07-1.03-0.07-1.73c0-0.59,0.01-1.08,0.04-1.47
			c0.02-0.39,0.07-0.71,0.14-0.97c0.07-0.26,0.16-0.48,0.27-0.67s0.28-0.39,0.53-0.62c0.24-0.22,0.74-0.56,1.48-1.01
			s1.69-0.88,2.82-1.31s2.44-0.78,3.93-1.08c1.49-0.29,3.1-0.44,4.83-0.44c2.27,0,4.28,0.26,6.03,0.78
			c1.75,0.52,3.22,1.27,4.42,2.25c1.19,0.98,2.1,2.18,2.71,3.61c0.62,1.43,0.92,3.04,0.92,4.83c0,1.39-0.18,2.69-0.54,3.89
			s-0.89,2.28-1.59,3.22c-0.7,0.94-1.58,1.75-2.62,2.41c-1.05,0.66-2.26,1.16-3.64,1.49v0.11c1.64,0.19,3.11,0.6,4.42,1.22
			c1.3,0.63,2.41,1.41,3.31,2.35c0.91,0.94,1.6,2.01,2.08,3.2C415.27,43.08,415.51,44.36,415.51,45.72z"/>
		<path class="st0" d="M454.37,44.27c0,2.48-0.44,4.69-1.32,6.64s-2.12,3.59-3.73,4.92s-3.54,2.35-5.79,3.06
			c-2.26,0.71-4.76,1.06-7.51,1.06c-1.45,0-2.82-0.09-4.13-0.27s-2.47-0.4-3.51-0.67c-1.04-0.27-1.89-0.54-2.55-0.81
			s-1.1-0.5-1.3-0.67c-0.21-0.18-0.36-0.37-0.45-0.58c-0.1-0.21-0.18-0.46-0.24-0.76c-0.06-0.29-0.1-0.67-0.13-1.11
			c-0.02-0.45-0.04-0.98-0.04-1.59c0-0.66,0.02-1.22,0.07-1.68c0.05-0.46,0.13-0.83,0.24-1.12s0.24-0.48,0.38-0.6
			c0.15-0.12,0.31-0.18,0.51-0.18c0.24,0,0.61,0.14,1.1,0.41s1.15,0.57,1.96,0.9c0.81,0.33,1.79,0.63,2.95,0.9
			c1.16,0.27,2.55,0.41,4.16,0.41c1.4,0,2.67-0.14,3.82-0.42s2.12-0.74,2.92-1.36s1.41-1.41,1.85-2.35s0.65-2.08,0.65-3.4
			c0-1.13-0.18-2.14-0.54-3.03c-0.36-0.88-0.93-1.63-1.7-2.25c-0.77-0.61-1.77-1.07-3.01-1.38c-1.23-0.31-2.73-0.46-4.49-0.46
			c-1.4,0-2.67,0.07-3.82,0.21c-1.15,0.14-2.23,0.21-3.24,0.21c-0.7,0-1.2-0.17-1.5-0.51c-0.3-0.34-0.45-0.97-0.45-1.89V16
			c0-0.94,0.19-1.62,0.56-2.04c0.37-0.41,0.97-0.62,1.79-0.62h22.2c0.22,0,0.42,0.07,0.62,0.21c0.19,0.14,0.36,0.37,0.49,0.67
			s0.23,0.71,0.29,1.22c0.06,0.51,0.09,1.12,0.09,1.82c0,1.42-0.13,2.44-0.38,3.08c-0.25,0.64-0.62,0.96-1.1,0.96H433.4v9.8
			c0.84-0.09,1.68-0.15,2.52-0.18s1.71-0.04,2.62-0.04c2.54,0,4.79,0.29,6.75,0.87s3.62,1.43,4.96,2.55s2.36,2.51,3.06,4.18
			S454.37,42.08,454.37,44.27z"/>
		<path class="st0" d="M516.82,57.76c0,0.26-0.07,0.49-0.2,0.69c-0.13,0.2-0.39,0.37-0.76,0.5s-0.89,0.23-1.54,0.3
			c-0.65,0.07-1.47,0.11-2.46,0.11c-1.57,0-2.7-0.06-3.39-0.18c-0.69-0.12-1.18-0.29-1.48-0.53c-0.3-0.24-0.54-0.52-0.71-0.85
			l-14.16-21.73v21.73c0,0.26-0.07,0.48-0.22,0.67c-0.15,0.19-0.4,0.35-0.76,0.48s-0.85,0.23-1.45,0.3
			c-0.6,0.07-1.38,0.11-2.32,0.11c-0.92,0-1.68-0.04-2.3-0.11c-0.62-0.07-1.1-0.17-1.47-0.3c-0.36-0.13-0.62-0.29-0.78-0.48
			s-0.24-0.41-0.24-0.67V14.65c0-0.26,0.08-0.48,0.24-0.67c0.16-0.19,0.42-0.34,0.78-0.46c0.36-0.12,0.85-0.21,1.47-0.28
			c0.62-0.07,1.38-0.11,2.3-0.11c0.94,0,1.71,0.04,2.32,0.11c0.6,0.07,1.09,0.17,1.45,0.28c0.36,0.12,0.62,0.27,0.76,0.46
			c0.14,0.19,0.22,0.41,0.22,0.67v19.5l13.72-19.46c0.17-0.31,0.37-0.56,0.62-0.76c0.24-0.2,0.56-0.36,0.94-0.48s0.88-0.2,1.49-0.25
			c0.6-0.05,1.38-0.07,2.32-0.07c0.96,0,1.76,0.04,2.39,0.11c0.63,0.07,1.13,0.17,1.5,0.3c0.37,0.13,0.63,0.29,0.78,0.48
			c0.14,0.19,0.22,0.4,0.22,0.64c0,0.4-0.11,0.81-0.33,1.24c-0.22,0.42-0.63,1.1-1.23,2.02l-12.85,16.46l14.01,20.7
			c0.53,0.97,0.85,1.61,0.96,1.93S516.82,57.57,516.82,57.76z"/>
		<path class="st0" d="M562.23,20.46c0,0.68-0.03,1.27-0.09,1.77c-0.06,0.5-0.14,0.89-0.25,1.19c-0.11,0.3-0.24,0.5-0.4,0.62
			c-0.16,0.12-0.34,0.18-0.56,0.18c-0.31,0-0.82-0.21-1.52-0.64s-1.63-0.88-2.79-1.38c-1.16-0.5-2.54-0.96-4.15-1.38
			c-1.61-0.42-3.47-0.64-5.59-0.64c-2.27,0-4.32,0.38-6.16,1.15c-1.83,0.77-3.4,1.85-4.71,3.26c-1.3,1.4-2.31,3.09-3,5.06
			c-0.7,1.97-1.05,4.15-1.05,6.53c0,2.62,0.36,4.93,1.07,6.92c0.71,1.99,1.71,3.66,2.99,5.01s2.82,2.36,4.62,3.04
			c1.8,0.68,3.78,1.03,5.96,1.03c1.06,0,2.11-0.12,3.15-0.35c1.04-0.24,2-0.59,2.9-1.06V40.13h-8.87c-0.43,0-0.77-0.27-1.01-0.8
			c-0.24-0.53-0.36-1.43-0.36-2.71c0-0.66,0.03-1.21,0.09-1.66c0.06-0.45,0.15-0.81,0.27-1.08c0.12-0.27,0.26-0.47,0.43-0.6
			c0.17-0.13,0.36-0.2,0.58-0.2h15.82c0.39,0,0.73,0.07,1.03,0.2s0.57,0.32,0.8,0.58s0.4,0.57,0.53,0.94
			c0.12,0.37,0.18,0.79,0.18,1.26v18.23c0,0.71-0.13,1.33-0.38,1.86c-0.25,0.53-0.77,0.95-1.56,1.26s-1.76,0.62-2.92,0.96
			c-1.16,0.33-2.36,0.61-3.6,0.85s-2.5,0.41-3.77,0.53s-2.54,0.18-3.82,0.18c-3.74,0-7.09-0.53-10.05-1.58
			c-2.96-1.05-5.46-2.57-7.51-4.57c-2.05-1.99-3.62-4.42-4.71-7.29c-1.09-2.87-1.63-6.12-1.63-9.75c0-3.75,0.58-7.12,1.74-10.1
			c1.16-2.98,2.8-5.52,4.92-7.61c2.12-2.09,4.69-3.69,7.69-4.8c3-1.11,6.35-1.66,10.05-1.66c2.03,0,3.88,0.14,5.54,0.41
			c1.67,0.27,3.12,0.6,4.36,0.99c1.24,0.39,2.28,0.81,3.1,1.26c0.82,0.45,1.39,0.84,1.72,1.17c0.33,0.33,0.56,0.8,0.71,1.4
			C562.16,18.38,562.23,19.28,562.23,20.46z"/>
	</g>
</g>
<g>
	<path d="M154.65,131.23H17.31C7.75,131.23,0,122.94,0,112.72l0-90.45C0,12.04,7.75,3.76,17.31,3.76l137.35,0
		c9.56,0,17.31,8.29,17.31,18.51v33.07l15.84,13.6l-15.84,14.57v29.2C171.96,122.94,164.21,131.23,154.65,131.23z"/>
	<g>
		<path class="st1" d="M104.14,84.78H65.71c-1.88,0-3.4-1.52-3.4-3.4V54.97c0-1.88,1.52-3.4,3.4-3.4h38.43c1.88,0,3.4,1.52,3.4,3.4
			v26.42C107.54,83.26,106.02,84.78,104.14,84.78z"/>
		<g>
			<g>
				<path class="st2" d="M53.61,48.36c-5.03,0.01-9.05-3.89-9.07-8.78c-0.01-4.91,4.09-8.92,9.1-8.9c4.97,0.02,9,3.99,8.99,8.88
					C62.64,44.48,58.66,48.35,53.61,48.36z"/>
				<path class="st2" d="M44.51,107.61c-2.2-0.74-3.75-2.03-4.02-4.44c-0.15-1.35,0.32-2.5,1.06-3.61c2.81-4.15,5.6-8.31,8.4-12.46
					c0.21-0.31,0.4-0.63,0.68-1.08c-1.91-0.58-3.71-1.16-5.54-1.69c-2.8-0.8-5.62-1.58-8.43-2.35c-3.58-0.98-5.71-3.62-5.8-7.41
					c-0.19-7.85,3.96-18.42,5.44-22.15s3.77-5.03,6.95-5.14c3.18-0.11,6.33,1.01,7.11,4.56c0.45,2.06,0.09,4.48-0.92,5.9
					c-0.4-1.33-0.76-2.63-1.17-3.92c-0.72-2.3-2.81-3.49-4.98-2.87c-2.22,0.63-3.37,2.69-2.72,4.98c1.15,4.06,2.33,8.11,3.51,12.16
					c0.11,0.39,0.23,0.9,0.53,1.11c1.38,0.99,1.08,2.28,0.73,3.54c-0.29,1.06,0.07,1.41,1.1,1.71c4.43,1.27,8.83,2.63,13.25,3.96
					c3.7,1.11,5.03,4.63,2.91,7.8c-4.22,6.31-8.48,12.59-12.69,18.9c-0.82,1.23-1.97,1.95-3.3,2.48
					C45.9,107.61,45.21,107.61,44.51,107.61z"/>
			</g>
			<path class="st2" d="M44.42,51.57c1.48,0.03,2.64,0.9,3.1,2.43c0.95,3.17,1.89,6.35,2.75,9.55c0.21,0.78,0.61,1.09,1.35,1.28
				c3.91,0.98,7.82,1.98,11.72,2.99c1.68,0.44,2.72,1.78,2.62,3.27c-0.1,1.49-1.17,2.71-2.73,2.93c-0.58,0.08-1.23-0.03-1.81-0.18
				c-4.65-1.18-9.29-2.39-13.94-3.57c-1.44-0.37-2.33-1.22-2.73-2.62c-1.11-3.91-2.26-7.81-3.37-11.71
				C40.71,53.58,42.15,51.53,44.42,51.57z"/>
		</g>
		<g>
			<path class="st2" d="M116.64,48.36c5.03,0.01,9.05-3.89,9.07-8.78c0.01-4.91-4.09-8.92-9.1-8.9c-4.97,0.02-9,3.99-8.99,8.88
				C107.61,44.48,111.59,48.35,116.64,48.36z"/>
			<path class="st2" d="M125.74,107.61c2.2-0.74,3.75-2.03,4.02-4.44c0.15-1.35-0.32-2.5-1.06-3.61c-2.81-4.15-5.6-8.31-8.4-12.46
				c-0.21-0.31-0.4-0.63-0.68-1.08c1.91-0.58,3.71-1.16,5.54-1.69c2.8-0.8,5.62-1.58,8.43-2.35c3.58-0.98,5.71-3.62,5.8-7.41
				c0.19-7.85-3.96-18.42-5.44-22.15s-3.77-5.03-6.95-5.14c-3.18-0.11-6.33,1.01-7.11,4.56c-0.45,2.06-0.09,4.48,0.92,5.9
				c0.4-1.33,0.76-2.63,1.17-3.92c0.72-2.3,2.81-3.49,4.98-2.87c2.22,0.63,3.37,2.69,2.72,4.98c-1.15,4.06-2.33,8.11-3.51,12.16
				c-0.11,0.39-0.23,0.9-0.53,1.11c-1.38,0.99-1.08,2.28-0.73,3.54c0.29,1.06-0.07,1.41-1.1,1.71c-4.43,1.27-8.83,2.63-13.25,3.96
				c-3.7,1.11-5.03,4.63-2.91,7.8c4.22,6.31,8.48,12.59,12.69,18.9c0.82,1.23,1.97,1.95,3.3,2.48
				C124.35,107.61,125.04,107.61,125.74,107.61z"/>
			<path class="st2" d="M125.83,51.57c-1.48,0.03-2.64,0.9-3.1,2.43c-0.95,3.17-1.89,6.35-2.75,9.55c-0.21,0.78-0.61,1.09-1.35,1.28
				c-3.91,0.98-7.82,1.98-11.72,2.99c-1.68,0.44-2.72,1.78-2.62,3.27c0.1,1.49,1.17,2.71,2.73,2.93c0.58,0.08,1.23-0.03,1.81-0.18
				c4.65-1.18,9.29-2.39,13.94-3.57c1.44-0.37,2.33-1.22,2.73-2.62c1.11-3.91,2.26-7.81,3.37-11.71
				C129.53,53.58,128.09,51.53,125.83,51.57z"/>
		</g>
	</g>
</g>
<path d="M833.06,131.03H695.93c-9.54,0-17.28-8.28-17.28-18.48V22.24c0-10.21,7.74-18.48,17.28-18.48l137.13,0
	c9.54,0,17.28,8.28,17.28,18.48v33.02l15.81,13.58l-15.81,14.55v29.16C850.34,122.75,842.61,131.03,833.06,131.03z"/>
<g>
	<g>
		<path class="st0" d="M906.01,38.99c0,0.13-0.03,0.25-0.1,0.35c-0.07,0.1-0.19,0.19-0.38,0.25c-0.19,0.07-0.44,0.12-0.77,0.15
			c-0.33,0.04-0.74,0.05-1.23,0.05c-0.78,0-1.35-0.03-1.69-0.09c-0.34-0.06-0.59-0.15-0.74-0.27c-0.15-0.12-0.27-0.26-0.35-0.43
			l-7.08-11.11v11.11c0,0.13-0.04,0.25-0.11,0.34s-0.2,0.18-0.38,0.24c-0.18,0.07-0.42,0.12-0.72,0.15s-0.69,0.05-1.16,0.05
			c-0.46,0-0.84-0.02-1.15-0.05s-0.55-0.09-0.73-0.15c-0.18-0.07-0.31-0.15-0.39-0.24c-0.08-0.1-0.12-0.21-0.12-0.34V16.95
			c0-0.13,0.04-0.25,0.12-0.34c0.08-0.1,0.21-0.17,0.39-0.24c0.18-0.06,0.43-0.11,0.73-0.15s0.69-0.05,1.15-0.05
			c0.47,0,0.86,0.02,1.16,0.05s0.54,0.08,0.72,0.15c0.18,0.06,0.31,0.14,0.38,0.24s0.11,0.21,0.11,0.34v9.97l6.86-9.95
			c0.08-0.16,0.19-0.29,0.31-0.39c0.12-0.1,0.28-0.18,0.47-0.24c0.19-0.06,0.44-0.1,0.74-0.13s0.69-0.04,1.16-0.04
			c0.48,0,0.88,0.02,1.19,0.05s0.56,0.09,0.75,0.15s0.32,0.15,0.39,0.24c0.07,0.1,0.11,0.21,0.11,0.33c0,0.21-0.05,0.42-0.16,0.63
			s-0.31,0.56-0.62,1.03l-6.42,8.42l7,10.59c0.26,0.49,0.42,0.82,0.48,0.99C905.99,38.76,906.01,38.89,906.01,38.99z"/>
		<path class="st0" d="M923.34,30.54c0,0.55-0.12,0.96-0.37,1.23c-0.25,0.26-0.59,0.4-1.02,0.4h-9.83c0,0.69,0.08,1.31,0.24,1.87
			c0.16,0.56,0.42,1.04,0.78,1.43c0.36,0.39,0.81,0.69,1.38,0.9c0.56,0.21,1.23,0.31,2.02,0.31c0.8,0,1.5-0.06,2.1-0.17
			c0.6-0.11,1.12-0.24,1.57-0.38s0.81-0.26,1.09-0.38c0.29-0.11,0.53-0.17,0.71-0.17c0.11,0,0.2,0.02,0.27,0.06s0.13,0.12,0.18,0.23
			c0.05,0.11,0.08,0.26,0.1,0.46c0.02,0.2,0.03,0.45,0.03,0.75c0,0.27-0.01,0.49-0.02,0.68c-0.01,0.19-0.03,0.35-0.05,0.48
			c-0.02,0.13-0.06,0.24-0.11,0.33c-0.05,0.09-0.11,0.18-0.19,0.26c-0.08,0.08-0.29,0.2-0.64,0.34c-0.35,0.15-0.8,0.29-1.34,0.43
			s-1.16,0.26-1.86,0.36c-0.7,0.1-1.45,0.15-2.24,0.15c-1.44,0-2.69-0.18-3.77-0.54c-1.08-0.36-1.98-0.91-2.71-1.65
			c-0.72-0.74-1.26-1.67-1.62-2.79c-0.36-1.12-0.53-2.44-0.53-3.94c0-1.44,0.19-2.73,0.56-3.88s0.92-2.13,1.63-2.93
			c0.71-0.8,1.58-1.41,2.6-1.84c1.02-0.42,2.17-0.63,3.45-0.63c1.35,0,2.51,0.2,3.47,0.6c0.96,0.4,1.75,0.95,2.36,1.66
			c0.62,0.71,1.07,1.54,1.36,2.51c0.29,0.97,0.43,2.01,0.43,3.15V30.54z M918.92,29.24c0.04-1.28-0.22-2.28-0.77-3.01
			c-0.55-0.73-1.4-1.09-2.54-1.09c-0.58,0-1.08,0.11-1.51,0.33c-0.43,0.22-0.78,0.51-1.07,0.88c-0.28,0.37-0.5,0.8-0.65,1.3
			c-0.15,0.5-0.24,1.03-0.26,1.6H918.92z"/>
		<path class="st0" d="M941.51,30.54c0,0.55-0.12,0.96-0.37,1.23c-0.25,0.26-0.59,0.4-1.02,0.4h-9.83c0,0.69,0.08,1.31,0.24,1.87
			c0.16,0.56,0.42,1.04,0.78,1.43c0.36,0.39,0.81,0.69,1.38,0.9c0.56,0.21,1.23,0.31,2.02,0.31c0.8,0,1.5-0.06,2.1-0.17
			c0.6-0.11,1.12-0.24,1.57-0.38s0.8-0.26,1.09-0.38c0.29-0.11,0.52-0.17,0.71-0.17c0.11,0,0.2,0.02,0.27,0.06
			c0.07,0.04,0.13,0.12,0.18,0.23c0.05,0.11,0.08,0.26,0.1,0.46c0.02,0.2,0.03,0.45,0.03,0.75c0,0.27-0.01,0.49-0.02,0.68
			c-0.01,0.19-0.03,0.35-0.05,0.48s-0.06,0.24-0.11,0.33c-0.05,0.09-0.11,0.18-0.19,0.26c-0.08,0.08-0.29,0.2-0.64,0.34
			c-0.35,0.15-0.8,0.29-1.34,0.43c-0.54,0.14-1.17,0.26-1.86,0.36c-0.7,0.1-1.45,0.15-2.24,0.15c-1.44,0-2.69-0.18-3.77-0.54
			c-1.08-0.36-1.98-0.91-2.71-1.65c-0.72-0.74-1.26-1.67-1.62-2.79s-0.53-2.44-0.53-3.94c0-1.44,0.19-2.73,0.56-3.88
			s0.92-2.13,1.63-2.93c0.71-0.8,1.58-1.41,2.6-1.84c1.02-0.42,2.17-0.63,3.45-0.63c1.35,0,2.51,0.2,3.46,0.6
			c0.96,0.4,1.75,0.95,2.36,1.66c0.62,0.71,1.07,1.54,1.36,2.51c0.29,0.97,0.43,2.01,0.43,3.15V30.54z M937.1,29.24
			c0.04-1.28-0.22-2.28-0.77-3.01c-0.55-0.73-1.4-1.09-2.54-1.09c-0.58,0-1.08,0.11-1.51,0.33c-0.43,0.22-0.78,0.51-1.07,0.88
			c-0.28,0.37-0.5,0.8-0.65,1.3c-0.15,0.5-0.24,1.03-0.26,1.6H937.1z"/>
		<path class="st0" d="M961.03,30.77c0,1.44-0.15,2.73-0.46,3.88c-0.31,1.15-0.76,2.13-1.35,2.94c-0.59,0.81-1.33,1.43-2.21,1.86
			s-1.89,0.65-3.02,0.65c-0.47,0-0.9-0.04-1.29-0.14c-0.39-0.09-0.77-0.23-1.14-0.42c-0.37-0.19-0.73-0.42-1.09-0.7
			c-0.36-0.28-0.74-0.6-1.12-0.98v7.6c0,0.12-0.04,0.23-0.11,0.33c-0.07,0.1-0.2,0.18-0.37,0.24c-0.18,0.07-0.41,0.12-0.7,0.15
			c-0.29,0.04-0.66,0.05-1.1,0.05s-0.81-0.02-1.1-0.05c-0.29-0.04-0.52-0.09-0.7-0.15s-0.3-0.15-0.37-0.24s-0.11-0.21-0.11-0.33
			V22.94c0-0.12,0.03-0.23,0.09-0.32c0.06-0.09,0.17-0.17,0.32-0.23c0.15-0.06,0.35-0.11,0.6-0.14s0.56-0.04,0.93-0.04
			c0.36,0,0.67,0.01,0.91,0.04c0.25,0.03,0.45,0.08,0.6,0.14c0.15,0.06,0.26,0.14,0.32,0.23c0.06,0.09,0.09,0.2,0.09,0.32v1.9
			c0.47-0.48,0.93-0.91,1.38-1.28c0.45-0.37,0.91-0.67,1.38-0.92c0.47-0.25,0.96-0.43,1.46-0.55c0.5-0.12,1.03-0.18,1.6-0.18
			c1.18,0,2.19,0.23,3.02,0.7c0.83,0.46,1.51,1.1,2.04,1.91c0.52,0.81,0.91,1.75,1.15,2.82C960.9,28.41,961.03,29.56,961.03,30.77z
			 M956.28,31.1c0-0.69-0.05-1.35-0.15-1.98c-0.1-0.63-0.28-1.2-0.53-1.69c-0.25-0.49-0.57-0.89-0.98-1.18
			c-0.4-0.3-0.91-0.44-1.51-0.44c-0.3,0-0.6,0.04-0.9,0.14c-0.3,0.09-0.6,0.24-0.9,0.44s-0.62,0.47-0.95,0.8
			c-0.33,0.33-0.67,0.73-1.03,1.21v5.32c0.64,0.81,1.25,1.43,1.83,1.87s1.18,0.66,1.81,0.66c0.59,0,1.09-0.15,1.51-0.45
			c0.42-0.3,0.76-0.7,1.02-1.18c0.27-0.49,0.46-1.04,0.59-1.66C956.22,32.33,956.28,31.72,956.28,31.1z"/>
		<path class="st0" d="M981.63,37.49c0,0.53-0.03,0.94-0.1,1.22s-0.15,0.48-0.26,0.6c-0.11,0.12-0.27,0.22-0.48,0.31
			c-0.21,0.09-0.46,0.17-0.74,0.24c-0.28,0.07-0.59,0.12-0.92,0.15c-0.33,0.04-0.67,0.05-1,0.05c-0.9,0-1.69-0.11-2.35-0.34
			c-0.66-0.23-1.21-0.58-1.65-1.06s-0.75-1.08-0.96-1.8c-0.21-0.72-0.31-1.58-0.31-2.57v-8.27h-1.94c-0.23,0-0.4-0.14-0.52-0.42
			c-0.12-0.28-0.18-0.76-0.18-1.42c0-0.35,0.02-0.65,0.05-0.89c0.03-0.24,0.08-0.43,0.14-0.57c0.06-0.14,0.14-0.24,0.23-0.3
			c0.09-0.06,0.2-0.09,0.32-0.09h1.92v-3.6c0-0.12,0.03-0.23,0.1-0.33c0.07-0.1,0.19-0.18,0.36-0.24s0.41-0.11,0.71-0.14
			s0.66-0.05,1.09-0.05c0.45,0,0.82,0.02,1.11,0.05c0.29,0.03,0.53,0.08,0.7,0.14s0.29,0.15,0.36,0.24s0.11,0.21,0.11,0.33v3.6h3.51
			c0.12,0,0.23,0.03,0.32,0.09s0.17,0.16,0.23,0.3c0.06,0.14,0.11,0.33,0.14,0.57c0.03,0.24,0.04,0.54,0.04,0.89
			c0,0.66-0.06,1.14-0.18,1.42c-0.12,0.28-0.3,0.42-0.53,0.42h-3.53v7.58c0,0.88,0.14,1.54,0.42,1.98s0.77,0.66,1.48,0.66
			c0.24,0,0.46-0.02,0.65-0.06c0.19-0.04,0.36-0.09,0.52-0.15c0.15-0.05,0.28-0.1,0.38-0.14c0.1-0.04,0.2-0.06,0.28-0.06
			c0.07,0,0.14,0.02,0.21,0.06c0.07,0.04,0.12,0.13,0.15,0.25c0.04,0.13,0.07,0.3,0.1,0.52C981.62,36.87,981.63,37.15,981.63,37.49z
			"/>
		<path class="st0" d="M999.86,39.08c0,0.12-0.04,0.23-0.11,0.32s-0.19,0.17-0.36,0.23s-0.4,0.11-0.7,0.14
			c-0.29,0.03-0.66,0.04-1.09,0.04c-0.45,0-0.82-0.02-1.11-0.04c-0.3-0.03-0.53-0.08-0.7-0.14s-0.29-0.14-0.36-0.23
			s-0.11-0.2-0.11-0.32v-9.21c0-0.78-0.06-1.4-0.17-1.85c-0.12-0.45-0.28-0.83-0.5-1.15c-0.22-0.32-0.5-0.57-0.84-0.74
			s-0.75-0.26-1.2-0.26c-0.58,0-1.16,0.21-1.75,0.63c-0.59,0.42-1.21,1.04-1.85,1.85v10.73c0,0.12-0.04,0.23-0.11,0.32
			c-0.07,0.09-0.2,0.17-0.37,0.23c-0.18,0.06-0.41,0.11-0.7,0.14c-0.29,0.03-0.66,0.04-1.1,0.04s-0.81-0.02-1.1-0.04
			c-0.29-0.03-0.52-0.08-0.7-0.14s-0.3-0.14-0.37-0.23s-0.11-0.2-0.11-0.32v-23.8c0-0.12,0.04-0.23,0.11-0.33
			c0.07-0.1,0.2-0.18,0.37-0.24s0.41-0.12,0.7-0.15c0.29-0.04,0.66-0.05,1.1-0.05s0.81,0.02,1.1,0.05c0.29,0.04,0.52,0.09,0.7,0.15
			c0.17,0.07,0.3,0.15,0.37,0.24c0.07,0.1,0.11,0.21,0.11,0.33v8.92c0.78-0.77,1.58-1.35,2.4-1.73c0.81-0.38,1.66-0.57,2.54-0.57
			c1.1,0,2.02,0.18,2.78,0.54c0.75,0.36,1.36,0.86,1.83,1.48c0.46,0.63,0.8,1.36,1,2.2c0.2,0.84,0.31,1.85,0.31,3.05V39.08z"/>
		<path class="st0" d="M1018.76,30.54c0,0.55-0.12,0.96-0.37,1.23c-0.25,0.26-0.59,0.4-1.02,0.4h-9.83c0,0.69,0.08,1.31,0.24,1.87
			c0.16,0.56,0.42,1.04,0.78,1.43c0.36,0.39,0.81,0.69,1.38,0.9c0.56,0.21,1.23,0.31,2.02,0.31c0.8,0,1.5-0.06,2.1-0.17
			c0.6-0.11,1.12-0.24,1.57-0.38s0.8-0.26,1.09-0.38c0.29-0.11,0.52-0.17,0.71-0.17c0.11,0,0.2,0.02,0.27,0.06
			c0.07,0.04,0.13,0.12,0.18,0.23c0.05,0.11,0.08,0.26,0.1,0.46c0.02,0.2,0.03,0.45,0.03,0.75c0,0.27-0.01,0.49-0.02,0.68
			c-0.01,0.19-0.03,0.35-0.05,0.48s-0.06,0.24-0.11,0.33c-0.05,0.09-0.11,0.18-0.19,0.26c-0.08,0.08-0.29,0.2-0.64,0.34
			c-0.35,0.15-0.8,0.29-1.34,0.43c-0.54,0.14-1.17,0.26-1.86,0.36c-0.7,0.1-1.45,0.15-2.24,0.15c-1.44,0-2.69-0.18-3.77-0.54
			c-1.08-0.36-1.98-0.91-2.71-1.65c-0.72-0.74-1.26-1.67-1.62-2.79s-0.53-2.44-0.53-3.94c0-1.44,0.19-2.73,0.56-3.88
			s0.92-2.13,1.63-2.93c0.71-0.8,1.58-1.41,2.6-1.84c1.02-0.42,2.17-0.63,3.45-0.63c1.35,0,2.51,0.2,3.46,0.6
			c0.96,0.4,1.75,0.95,2.36,1.66c0.62,0.71,1.07,1.54,1.36,2.51c0.29,0.97,0.43,2.01,0.43,3.15V30.54z M1014.34,29.24
			c0.04-1.28-0.22-2.28-0.77-3.01c-0.55-0.73-1.4-1.09-2.54-1.09c-0.58,0-1.08,0.11-1.51,0.33c-0.43,0.22-0.78,0.51-1.07,0.88
			c-0.28,0.37-0.5,0.8-0.65,1.3c-0.15,0.5-0.24,1.03-0.26,1.6H1014.34z"/>
		<path class="st0" d="M1046.17,30.79c0,1.44-0.16,2.73-0.47,3.87c-0.31,1.15-0.77,2.12-1.36,2.93c-0.59,0.81-1.32,1.43-2.18,1.86
			c-0.86,0.43-1.84,0.65-2.94,0.65c-0.54,0-1.05-0.05-1.52-0.15s-0.92-0.27-1.35-0.5c-0.43-0.23-0.85-0.52-1.27-0.87
			c-0.42-0.35-0.84-0.77-1.28-1.27v1.76c0,0.13-0.03,0.24-0.1,0.33c-0.07,0.09-0.17,0.17-0.33,0.23c-0.15,0.06-0.35,0.1-0.61,0.13
			c-0.25,0.02-0.56,0.04-0.92,0.04c-0.37,0-0.69-0.01-0.93-0.04c-0.25-0.02-0.45-0.07-0.6-0.13c-0.15-0.06-0.26-0.14-0.32-0.23
			c-0.06-0.09-0.09-0.2-0.09-0.33v-23.8c0-0.12,0.04-0.23,0.11-0.33c0.07-0.1,0.2-0.18,0.37-0.24s0.41-0.12,0.7-0.15
			c0.29-0.04,0.66-0.05,1.1-0.05s0.81,0.02,1.1,0.05c0.29,0.04,0.52,0.09,0.7,0.15c0.17,0.07,0.3,0.15,0.37,0.24
			c0.07,0.1,0.11,0.21,0.11,0.33v8.92c0.41-0.41,0.82-0.76,1.23-1.05c0.41-0.29,0.82-0.53,1.23-0.71c0.41-0.19,0.83-0.32,1.27-0.41
			c0.43-0.08,0.89-0.13,1.38-0.13c1.19,0,2.21,0.24,3.04,0.71s1.51,1.12,2.04,1.93c0.52,0.81,0.91,1.75,1.15,2.83
			C1046.05,28.46,1046.17,29.6,1046.17,30.79z M1041.45,31.12c0-0.69-0.05-1.35-0.15-1.99c-0.1-0.64-0.28-1.21-0.53-1.7
			c-0.25-0.49-0.58-0.89-0.99-1.18c-0.4-0.3-0.91-0.44-1.53-0.44c-0.3,0-0.6,0.04-0.89,0.13c-0.29,0.08-0.59,0.23-0.9,0.43
			s-0.62,0.47-0.95,0.8c-0.33,0.33-0.67,0.73-1.03,1.21v5.36c0.64,0.82,1.25,1.44,1.84,1.87c0.58,0.43,1.2,0.64,1.84,0.64
			c0.59,0,1.09-0.15,1.5-0.45c0.41-0.3,0.75-0.69,1.02-1.18s0.47-1.03,0.59-1.65C1041.39,32.35,1041.45,31.73,1041.45,31.12z"/>
		<path class="st0" d="M1065.65,30.85c0,1.38-0.18,2.63-0.54,3.76c-0.36,1.13-0.91,2.11-1.65,2.93c-0.74,0.82-1.66,1.45-2.77,1.9
			c-1.11,0.45-2.41,0.67-3.89,0.67c-1.44,0-2.68-0.2-3.75-0.6c-1.06-0.4-1.94-0.98-2.64-1.74c-0.7-0.76-1.22-1.7-1.56-2.81
			c-0.34-1.11-0.51-2.38-0.51-3.8c0-1.38,0.18-2.63,0.55-3.77c0.37-1.14,0.92-2.12,1.66-2.93c0.74-0.81,1.66-1.44,2.76-1.89
			c1.1-0.45,2.4-0.67,3.88-0.67c1.45,0,2.7,0.2,3.76,0.59c1.06,0.39,1.94,0.97,2.63,1.73c0.69,0.76,1.21,1.69,1.55,2.8
			C1065.48,28.14,1065.65,29.41,1065.65,30.85z M1060.96,31.03c0-0.8-0.06-1.53-0.19-2.2c-0.13-0.67-0.34-1.25-0.64-1.75
			c-0.3-0.49-0.7-0.88-1.2-1.16c-0.5-0.28-1.13-0.42-1.89-0.42c-0.68,0-1.27,0.12-1.77,0.37s-0.92,0.61-1.25,1.09
			c-0.33,0.48-0.57,1.05-0.73,1.72c-0.16,0.67-0.24,1.43-0.24,2.29c0,0.8,0.07,1.53,0.2,2.2c0.13,0.67,0.35,1.25,0.64,1.75
			s0.7,0.88,1.2,1.15c0.51,0.27,1.13,0.41,1.88,0.41c0.69,0,1.28-0.12,1.79-0.37s0.92-0.61,1.25-1.08c0.33-0.47,0.57-1.04,0.72-1.71
			C1060.88,32.65,1060.96,31.88,1060.96,31.03z"/>
		<path class="st0" d="M1082.79,38.75c0.1,0.21,0.14,0.37,0.14,0.51c-0.01,0.13-0.09,0.24-0.26,0.33c-0.17,0.08-0.43,0.14-0.78,0.17
			c-0.35,0.03-0.81,0.04-1.39,0.04c-0.54,0-0.98-0.01-1.31-0.03c-0.33-0.02-0.59-0.05-0.78-0.11c-0.19-0.05-0.33-0.12-0.42-0.2
			c-0.09-0.08-0.16-0.18-0.21-0.3l-2.99-5.74l-2.99,5.74c-0.05,0.12-0.11,0.22-0.2,0.3c-0.08,0.08-0.21,0.14-0.39,0.2
			s-0.42,0.09-0.73,0.11c-0.31,0.02-0.72,0.03-1.23,0.03c-0.53,0-0.95-0.02-1.27-0.04c-0.31-0.03-0.54-0.09-0.69-0.17
			c-0.14-0.08-0.22-0.19-0.23-0.33c-0.01-0.13,0.05-0.3,0.15-0.51l4.47-7.94l-4.13-7.46c-0.11-0.22-0.17-0.4-0.17-0.55
			c-0.01-0.15,0.07-0.27,0.23-0.35c0.16-0.08,0.41-0.15,0.75-0.18s0.81-0.05,1.4-0.05c0.53,0,0.96,0.01,1.28,0.03
			c0.32,0.02,0.57,0.04,0.75,0.08s0.31,0.09,0.4,0.17c0.08,0.08,0.16,0.18,0.22,0.3l2.88,5.39l2.86-5.39
			c0.04-0.1,0.09-0.18,0.16-0.25s0.19-0.13,0.34-0.18c0.16-0.05,0.37-0.08,0.64-0.11s0.64-0.04,1.11-0.04
			c0.53,0,0.96,0.01,1.28,0.04c0.32,0.02,0.55,0.08,0.69,0.16c0.14,0.08,0.21,0.2,0.2,0.35c-0.01,0.15-0.08,0.35-0.21,0.59
			l-4.02,7.33L1082.79,38.75z"/>
		<path class="st0" d="M1098.11,17.47c0,0.92-0.19,1.55-0.56,1.9c-0.37,0.35-1.07,0.52-2.08,0.52c-1.03,0-1.72-0.17-2.07-0.51
			s-0.53-0.95-0.53-1.83c0-0.92,0.18-1.55,0.55-1.91c0.37-0.36,1.06-0.53,2.09-0.53c1.01,0,1.7,0.17,2.06,0.52
			C1097.93,15.98,1098.11,16.59,1098.11,17.47z M1097.77,39.08c0,0.12-0.04,0.23-0.11,0.32s-0.2,0.17-0.37,0.23s-0.41,0.11-0.7,0.14
			c-0.29,0.03-0.66,0.04-1.1,0.04s-0.81-0.02-1.1-0.04c-0.29-0.03-0.52-0.08-0.7-0.14c-0.18-0.06-0.3-0.14-0.37-0.23
			s-0.11-0.2-0.11-0.32V22.98c0-0.12,0.04-0.23,0.11-0.32c0.07-0.09,0.2-0.17,0.37-0.24c0.17-0.07,0.41-0.12,0.7-0.15
			c0.29-0.04,0.66-0.05,1.1-0.05s0.81,0.02,1.1,0.05c0.29,0.04,0.52,0.09,0.7,0.15s0.3,0.14,0.37,0.24c0.07,0.09,0.11,0.2,0.11,0.32
			V39.08z"/>
		<path class="st0" d="M1117.25,39.08c0,0.12-0.04,0.23-0.11,0.32s-0.19,0.17-0.36,0.23s-0.4,0.11-0.7,0.14
			c-0.29,0.03-0.66,0.04-1.09,0.04c-0.45,0-0.82-0.02-1.11-0.04c-0.3-0.03-0.53-0.08-0.7-0.14s-0.29-0.14-0.36-0.23
			s-0.11-0.2-0.11-0.32v-9.21c0-0.78-0.06-1.4-0.17-1.85c-0.12-0.45-0.28-0.83-0.5-1.15c-0.22-0.32-0.5-0.57-0.84-0.74
			s-0.75-0.26-1.2-0.26c-0.58,0-1.16,0.21-1.75,0.63c-0.59,0.42-1.21,1.04-1.85,1.85v10.73c0,0.12-0.04,0.23-0.11,0.32
			c-0.07,0.09-0.2,0.17-0.37,0.23c-0.18,0.06-0.41,0.11-0.7,0.14c-0.29,0.03-0.66,0.04-1.1,0.04s-0.81-0.02-1.1-0.04
			c-0.29-0.03-0.52-0.08-0.7-0.14s-0.3-0.14-0.37-0.23s-0.11-0.2-0.11-0.32V22.94c0-0.12,0.03-0.23,0.09-0.32
			c0.06-0.09,0.17-0.17,0.33-0.23c0.16-0.06,0.36-0.11,0.61-0.14s0.56-0.04,0.93-0.04c0.39,0,0.71,0.01,0.96,0.04
			c0.25,0.03,0.45,0.08,0.59,0.14c0.14,0.06,0.24,0.14,0.3,0.23c0.06,0.09,0.09,0.2,0.09,0.32v1.86c0.89-0.97,1.8-1.69,2.72-2.17
			s1.88-0.72,2.89-0.72c1.1,0,2.02,0.18,2.78,0.54c0.75,0.36,1.36,0.85,1.83,1.47s0.8,1.35,1,2.18c0.2,0.83,0.31,1.83,0.31,3V39.08z
			"/>
		<path class="st0" d="M1141.35,36.51c0,0.31-0.01,0.58-0.03,0.79c-0.02,0.21-0.04,0.39-0.07,0.53s-0.07,0.26-0.11,0.35
			c-0.04,0.09-0.14,0.21-0.28,0.34c-0.14,0.14-0.39,0.31-0.74,0.51c-0.35,0.2-0.75,0.38-1.19,0.53s-0.93,0.28-1.46,0.38
			s-1.06,0.14-1.62,0.14c-1.24,0-2.34-0.19-3.3-0.58c-0.96-0.39-1.76-0.96-2.42-1.71c-0.65-0.75-1.14-1.67-1.47-2.76
			c-0.33-1.09-0.5-2.33-0.5-3.73c0-1.62,0.2-3.01,0.61-4.19c0.4-1.18,0.97-2.15,1.69-2.92c0.72-0.77,1.58-1.34,2.57-1.72
			s2.08-0.56,3.26-0.56c0.48,0,0.96,0.04,1.42,0.13c0.46,0.08,0.9,0.2,1.3,0.34s0.77,0.31,1.09,0.49c0.32,0.18,0.55,0.34,0.68,0.47
			s0.23,0.24,0.28,0.33s0.1,0.21,0.13,0.35c0.03,0.15,0.05,0.32,0.07,0.53c0.02,0.21,0.03,0.47,0.03,0.77c0,0.7-0.06,1.19-0.18,1.48
			c-0.12,0.28-0.28,0.42-0.47,0.42c-0.21,0-0.42-0.08-0.65-0.25c-0.23-0.17-0.5-0.36-0.81-0.56c-0.31-0.21-0.69-0.39-1.12-0.56
			c-0.43-0.17-0.95-0.25-1.56-0.25c-1.18,0-2.09,0.46-2.71,1.37c-0.63,0.91-0.94,2.25-0.94,4.01c0,0.87,0.08,1.63,0.24,2.3
			c0.16,0.66,0.39,1.22,0.7,1.67s0.69,0.78,1.16,1c0.46,0.22,1,0.33,1.62,0.33c0.63,0,1.17-0.09,1.62-0.28
			c0.45-0.19,0.85-0.4,1.19-0.62c0.34-0.23,0.62-0.44,0.85-0.62c0.23-0.19,0.42-0.28,0.58-0.28c0.11,0,0.2,0.03,0.27,0.09
			s0.13,0.17,0.17,0.33c0.04,0.16,0.08,0.37,0.1,0.62C1141.33,35.79,1141.35,36.11,1141.35,36.51z"/>
		<path class="st0" d="M1157.91,39.13c0,0.17-0.06,0.3-0.18,0.4c-0.12,0.1-0.31,0.17-0.57,0.21c-0.26,0.04-0.64,0.06-1.15,0.06
			c-0.54,0-0.94-0.02-1.19-0.06s-0.42-0.11-0.52-0.21s-0.15-0.23-0.15-0.4v-1.28c-0.66,0.71-1.42,1.27-2.27,1.66
			c-0.85,0.4-1.79,0.6-2.83,0.6c-0.86,0-1.64-0.11-2.36-0.33c-0.72-0.22-1.34-0.55-1.86-1c-0.52-0.44-0.93-0.99-1.22-1.64
			c-0.29-0.65-0.43-1.41-0.43-2.28c0-0.94,0.18-1.76,0.55-2.45c0.37-0.69,0.92-1.27,1.65-1.72c0.73-0.45,1.64-0.79,2.72-1
			c1.09-0.22,2.35-0.33,3.78-0.33h1.57v-0.98c0-0.51-0.05-0.95-0.15-1.33c-0.1-0.38-0.27-0.7-0.51-0.95
			c-0.24-0.25-0.55-0.44-0.94-0.56c-0.39-0.12-0.88-0.18-1.46-0.18c-0.76,0-1.44,0.08-2.04,0.25c-0.6,0.17-1.12,0.36-1.58,0.56
			c-0.46,0.21-0.84,0.39-1.15,0.56s-0.56,0.25-0.75,0.25c-0.13,0-0.25-0.04-0.35-0.13c-0.1-0.08-0.19-0.21-0.25-0.36
			c-0.07-0.16-0.12-0.35-0.15-0.58c-0.04-0.23-0.05-0.48-0.05-0.76c0-0.37,0.03-0.67,0.09-0.89c0.06-0.22,0.17-0.41,0.34-0.59
			c0.17-0.17,0.46-0.37,0.89-0.58c0.42-0.21,0.92-0.41,1.48-0.59s1.19-0.33,1.85-0.44c0.67-0.11,1.36-0.17,2.07-0.17
			c1.27,0,2.35,0.12,3.25,0.37s1.64,0.63,2.22,1.14s1,1.17,1.27,1.98c0.27,0.81,0.4,1.77,0.4,2.88V39.13z M1153.44,32.22h-1.74
			c-0.74,0-1.36,0.05-1.88,0.16c-0.52,0.11-0.94,0.27-1.27,0.49c-0.33,0.22-0.56,0.48-0.71,0.79c-0.15,0.31-0.23,0.66-0.23,1.06
			c0,0.68,0.21,1.21,0.64,1.59c0.43,0.39,1.02,0.58,1.78,0.58c0.64,0,1.23-0.16,1.76-0.49c0.54-0.33,1.08-0.8,1.64-1.43V32.22z"/>
		<path class="st0" d="M1173.33,34.52c0,0.92-0.17,1.73-0.52,2.42c-0.34,0.7-0.83,1.29-1.46,1.76c-0.63,0.47-1.37,0.82-2.23,1.06
			c-0.86,0.23-1.79,0.35-2.79,0.35c-0.6,0-1.18-0.04-1.73-0.14c-0.55-0.09-1.04-0.21-1.48-0.34c-0.43-0.14-0.8-0.28-1.08-0.43
			c-0.29-0.14-0.5-0.28-0.63-0.41c-0.13-0.13-0.24-0.33-0.31-0.6s-0.11-0.67-0.11-1.2c0-0.35,0.01-0.63,0.04-0.84
			s0.06-0.38,0.11-0.51c0.05-0.13,0.11-0.21,0.18-0.25c0.07-0.04,0.16-0.06,0.27-0.06c0.13,0,0.33,0.08,0.59,0.23
			c0.26,0.15,0.58,0.32,0.97,0.5c0.39,0.18,0.83,0.35,1.35,0.51c0.51,0.16,1.1,0.24,1.75,0.24c0.41,0,0.77-0.04,1.09-0.13
			c0.32-0.08,0.6-0.21,0.83-0.36c0.24-0.16,0.41-0.36,0.53-0.6c0.12-0.24,0.18-0.52,0.18-0.83c0-0.36-0.11-0.67-0.33-0.93
			c-0.22-0.26-0.52-0.49-0.89-0.68c-0.37-0.19-0.78-0.37-1.25-0.54c-0.46-0.17-0.94-0.36-1.43-0.56c-0.49-0.21-0.97-0.44-1.43-0.71
			c-0.46-0.27-0.88-0.59-1.25-0.98s-0.66-0.85-0.89-1.39c-0.22-0.54-0.33-1.19-0.33-1.95c0-0.77,0.15-1.48,0.45-2.13
			c0.3-0.65,0.74-1.2,1.3-1.66c0.57-0.46,1.26-0.81,2.07-1.07s1.73-0.38,2.74-0.38c0.51,0,1,0.04,1.47,0.11s0.91,0.16,1.29,0.27
			s0.71,0.23,0.98,0.35c0.26,0.13,0.46,0.24,0.57,0.33c0.12,0.09,0.2,0.18,0.25,0.27c0.05,0.09,0.08,0.2,0.11,0.33
			c0.02,0.13,0.04,0.28,0.06,0.47c0.02,0.19,0.03,0.42,0.03,0.7c0,0.33-0.01,0.59-0.03,0.8c-0.02,0.21-0.05,0.37-0.09,0.49
			c-0.04,0.12-0.1,0.2-0.17,0.24c-0.07,0.04-0.16,0.06-0.25,0.06c-0.11,0-0.28-0.06-0.51-0.19c-0.23-0.13-0.52-0.26-0.86-0.41
			c-0.34-0.15-0.74-0.28-1.19-0.41c-0.45-0.13-0.97-0.19-1.55-0.19c-0.41,0-0.77,0.04-1.07,0.13s-0.55,0.21-0.74,0.36
			c-0.19,0.16-0.34,0.34-0.43,0.55s-0.14,0.44-0.14,0.68c0,0.38,0.11,0.69,0.34,0.94s0.53,0.48,0.91,0.67
			c0.37,0.19,0.8,0.37,1.28,0.54s0.96,0.35,1.45,0.55c0.49,0.2,0.97,0.43,1.45,0.7c0.48,0.27,0.9,0.59,1.28,0.98
			s0.68,0.85,0.91,1.38C1173.22,33.15,1173.33,33.79,1173.33,34.52z"/>
		<path class="st0" d="M1191.18,30.54c0,0.55-0.12,0.96-0.37,1.23c-0.25,0.26-0.59,0.4-1.02,0.4h-9.83c0,0.69,0.08,1.31,0.24,1.87
			c0.16,0.56,0.42,1.04,0.78,1.43c0.36,0.39,0.81,0.69,1.38,0.9c0.56,0.21,1.23,0.31,2.02,0.31c0.8,0,1.5-0.06,2.1-0.17
			c0.6-0.11,1.12-0.24,1.57-0.38s0.8-0.26,1.09-0.38c0.29-0.11,0.52-0.17,0.71-0.17c0.11,0,0.2,0.02,0.27,0.06
			c0.07,0.04,0.13,0.12,0.18,0.23c0.05,0.11,0.08,0.26,0.1,0.46c0.02,0.2,0.03,0.45,0.03,0.75c0,0.27-0.01,0.49-0.02,0.68
			c-0.01,0.19-0.03,0.35-0.05,0.48s-0.06,0.24-0.11,0.33c-0.05,0.09-0.11,0.18-0.19,0.26c-0.08,0.08-0.29,0.2-0.64,0.34
			c-0.35,0.15-0.8,0.29-1.34,0.43c-0.54,0.14-1.17,0.26-1.86,0.36c-0.7,0.1-1.45,0.15-2.24,0.15c-1.44,0-2.69-0.18-3.77-0.54
			c-1.08-0.36-1.98-0.91-2.71-1.65c-0.72-0.74-1.26-1.67-1.62-2.79s-0.53-2.44-0.53-3.94c0-1.44,0.19-2.73,0.56-3.88
			s0.92-2.13,1.63-2.93c0.71-0.8,1.58-1.41,2.6-1.84c1.02-0.42,2.17-0.63,3.45-0.63c1.35,0,2.51,0.2,3.46,0.6
			c0.96,0.4,1.75,0.95,2.36,1.66c0.62,0.71,1.07,1.54,1.36,2.51c0.29,0.97,0.43,2.01,0.43,3.15V30.54z M1186.77,29.24
			c0.04-1.28-0.22-2.28-0.77-3.01c-0.55-0.73-1.4-1.09-2.54-1.09c-0.58,0-1.08,0.11-1.51,0.33c-0.43,0.22-0.78,0.51-1.07,0.88
			c-0.28,0.37-0.5,0.8-0.65,1.3c-0.15,0.5-0.24,1.03-0.26,1.6H1186.77z"/>
		<path class="st0" d="M1218.67,30.85c0,1.38-0.18,2.63-0.54,3.76c-0.36,1.13-0.91,2.11-1.65,2.93c-0.74,0.82-1.66,1.45-2.77,1.9
			c-1.11,0.45-2.41,0.67-3.89,0.67c-1.44,0-2.68-0.2-3.75-0.6c-1.06-0.4-1.94-0.98-2.64-1.74c-0.7-0.76-1.22-1.7-1.56-2.81
			c-0.34-1.11-0.51-2.38-0.51-3.8c0-1.38,0.18-2.63,0.55-3.77c0.37-1.14,0.92-2.12,1.66-2.93c0.74-0.81,1.66-1.44,2.76-1.89
			c1.1-0.45,2.4-0.67,3.88-0.67c1.45,0,2.7,0.2,3.76,0.59c1.06,0.39,1.94,0.97,2.63,1.73c0.69,0.76,1.21,1.69,1.55,2.8
			C1218.5,28.14,1218.67,29.41,1218.67,30.85z M1213.98,31.03c0-0.8-0.06-1.53-0.19-2.2c-0.13-0.67-0.34-1.25-0.64-1.75
			c-0.3-0.49-0.7-0.88-1.2-1.16c-0.5-0.28-1.13-0.42-1.89-0.42c-0.68,0-1.27,0.12-1.77,0.37s-0.92,0.61-1.25,1.09
			c-0.33,0.48-0.57,1.05-0.73,1.72c-0.16,0.67-0.24,1.43-0.24,2.29c0,0.8,0.07,1.53,0.2,2.2c0.13,0.67,0.35,1.25,0.64,1.75
			s0.7,0.88,1.2,1.15c0.51,0.27,1.13,0.41,1.88,0.41c0.69,0,1.28-0.12,1.79-0.37s0.92-0.61,1.25-1.08c0.33-0.47,0.57-1.04,0.72-1.71
			C1213.9,32.65,1213.98,31.88,1213.98,31.03z"/>
		<path class="st0" d="M1231.52,16.79c0,0.35-0.01,0.63-0.04,0.84c-0.02,0.21-0.06,0.38-0.11,0.49c-0.05,0.11-0.1,0.19-0.16,0.24
			s-0.13,0.06-0.2,0.06c-0.08,0-0.18-0.02-0.28-0.06s-0.23-0.09-0.38-0.14c-0.15-0.05-0.33-0.09-0.53-0.14s-0.45-0.06-0.72-0.06
			c-0.33,0-0.61,0.05-0.84,0.15c-0.23,0.1-0.43,0.27-0.59,0.49c-0.16,0.22-0.27,0.51-0.34,0.87c-0.07,0.36-0.11,0.79-0.11,1.31v1.48
			h2.95c0.11,0,0.21,0.03,0.3,0.09s0.17,0.16,0.23,0.3c0.06,0.14,0.11,0.33,0.14,0.57c0.03,0.24,0.04,0.54,0.04,0.89
			c0,0.66-0.06,1.14-0.18,1.42c-0.12,0.28-0.3,0.42-0.53,0.42h-2.95v13.07c0,0.12-0.04,0.23-0.11,0.32s-0.19,0.17-0.36,0.23
			s-0.4,0.11-0.71,0.14c-0.3,0.03-0.67,0.04-1.1,0.04c-0.43,0-0.8-0.02-1.09-0.04c-0.3-0.03-0.53-0.08-0.71-0.14
			c-0.18-0.06-0.3-0.14-0.36-0.23s-0.1-0.2-0.1-0.32V26.02h-2.03c-0.23,0-0.4-0.14-0.52-0.42c-0.12-0.28-0.17-0.76-0.17-1.42
			c0-0.35,0.02-0.65,0.05-0.89s0.07-0.43,0.13-0.57c0.05-0.14,0.13-0.24,0.22-0.3s0.2-0.09,0.32-0.09h2.01v-1.36
			c0-1.1,0.11-2.06,0.33-2.89c0.22-0.83,0.56-1.51,1.02-2.06c0.46-0.55,1.06-0.96,1.77-1.24s1.57-0.42,2.54-0.42
			c0.47,0,0.92,0.04,1.34,0.12c0.42,0.08,0.75,0.16,1,0.25c0.24,0.09,0.4,0.17,0.49,0.25c0.08,0.08,0.15,0.19,0.21,0.34
			c0.05,0.15,0.09,0.34,0.12,0.58S1231.52,16.44,1231.52,16.79z"/>
		<path class="st0" d="M1266.6,39.08c0,0.12-0.04,0.23-0.11,0.32s-0.19,0.17-0.36,0.23s-0.4,0.11-0.69,0.14
			c-0.29,0.03-0.66,0.04-1.1,0.04c-0.46,0-0.83-0.02-1.12-0.04c-0.29-0.03-0.52-0.08-0.7-0.14c-0.18-0.06-0.3-0.14-0.36-0.23
			s-0.1-0.2-0.1-0.32v-9.57c0-0.54-0.05-1.04-0.15-1.48c-0.1-0.45-0.26-0.83-0.47-1.15c-0.21-0.32-0.48-0.57-0.8-0.74
			c-0.32-0.17-0.7-0.26-1.15-0.26c-0.54,0-1.09,0.21-1.65,0.63c-0.56,0.42-1.16,1.04-1.81,1.85v10.73c0,0.12-0.04,0.23-0.11,0.32
			s-0.2,0.17-0.37,0.23c-0.18,0.06-0.41,0.11-0.7,0.14c-0.29,0.03-0.65,0.04-1.09,0.04c-0.45,0-0.81-0.02-1.1-0.04
			c-0.29-0.03-0.52-0.08-0.7-0.14c-0.18-0.06-0.3-0.14-0.37-0.23s-0.11-0.2-0.11-0.32v-9.57c0-0.54-0.05-1.04-0.15-1.48
			s-0.26-0.83-0.46-1.15c-0.21-0.32-0.47-0.57-0.8-0.74c-0.33-0.17-0.71-0.26-1.14-0.26c-0.56,0-1.11,0.21-1.67,0.63
			c-0.55,0.42-1.15,1.04-1.79,1.85v10.73c0,0.12-0.04,0.23-0.11,0.32c-0.07,0.09-0.2,0.17-0.37,0.23c-0.18,0.06-0.41,0.11-0.7,0.14
			c-0.29,0.03-0.66,0.04-1.1,0.04s-0.81-0.02-1.1-0.04c-0.29-0.03-0.52-0.08-0.7-0.14s-0.3-0.14-0.37-0.23s-0.11-0.2-0.11-0.32
			V22.94c0-0.12,0.03-0.23,0.09-0.32c0.06-0.09,0.17-0.17,0.33-0.23c0.16-0.06,0.36-0.11,0.61-0.14s0.56-0.04,0.93-0.04
			c0.39,0,0.71,0.01,0.96,0.04c0.25,0.03,0.45,0.08,0.59,0.14c0.14,0.06,0.24,0.14,0.3,0.23c0.06,0.09,0.09,0.2,0.09,0.32v1.86
			c0.89-0.97,1.78-1.69,2.67-2.17s1.81-0.72,2.78-0.72c0.66,0,1.26,0.07,1.79,0.21c0.53,0.14,1,0.34,1.42,0.6
			c0.42,0.26,0.77,0.57,1.08,0.93c0.3,0.36,0.55,0.77,0.76,1.21c0.48-0.52,0.96-0.96,1.42-1.34c0.46-0.37,0.92-0.68,1.38-0.91
			s0.91-0.41,1.36-0.52s0.91-0.17,1.38-0.17c1.07,0,1.98,0.18,2.71,0.54c0.74,0.36,1.33,0.85,1.78,1.47s0.78,1.35,0.97,2.18
			c0.19,0.83,0.29,1.71,0.29,2.64V39.08z"/>
		<path class="st0" d="M1286.92,30.85c0,1.38-0.18,2.63-0.54,3.76c-0.36,1.13-0.91,2.11-1.65,2.93c-0.74,0.82-1.66,1.45-2.77,1.9
			c-1.11,0.45-2.41,0.67-3.89,0.67c-1.44,0-2.68-0.2-3.75-0.6c-1.06-0.4-1.94-0.98-2.64-1.74c-0.7-0.76-1.22-1.7-1.56-2.81
			c-0.34-1.11-0.51-2.38-0.51-3.8c0-1.38,0.18-2.63,0.55-3.77c0.37-1.14,0.92-2.12,1.66-2.93c0.74-0.81,1.66-1.44,2.76-1.89
			c1.1-0.45,2.4-0.67,3.88-0.67c1.45,0,2.7,0.2,3.76,0.59c1.06,0.39,1.94,0.97,2.63,1.73c0.69,0.76,1.21,1.69,1.55,2.8
			C1286.75,28.14,1286.92,29.41,1286.92,30.85z M1282.23,31.03c0-0.8-0.06-1.53-0.19-2.2c-0.13-0.67-0.34-1.25-0.64-1.75
			c-0.3-0.49-0.7-0.88-1.2-1.16c-0.5-0.28-1.13-0.42-1.89-0.42c-0.68,0-1.27,0.12-1.77,0.37s-0.92,0.61-1.25,1.09
			c-0.33,0.48-0.57,1.05-0.73,1.72c-0.16,0.67-0.24,1.43-0.24,2.29c0,0.8,0.07,1.53,0.2,2.2c0.13,0.67,0.35,1.25,0.64,1.75
			s0.7,0.88,1.2,1.15c0.51,0.27,1.13,0.41,1.88,0.41c0.69,0,1.28-0.12,1.79-0.37s0.92-0.61,1.25-1.08c0.33-0.47,0.57-1.04,0.72-1.71
			C1282.15,32.65,1282.23,31.88,1282.23,31.03z"/>
		<path class="st0" d="M1304.89,22.92c0,0.06,0,0.13-0.01,0.22c-0.01,0.08-0.02,0.18-0.04,0.28c-0.02,0.1-0.04,0.22-0.07,0.35
			c-0.03,0.13-0.07,0.28-0.12,0.45l-4.85,14.6c-0.06,0.21-0.14,0.37-0.24,0.5s-0.27,0.23-0.51,0.3s-0.55,0.12-0.96,0.14
			c-0.4,0.02-0.93,0.04-1.58,0.04c-0.64,0-1.16-0.02-1.57-0.04c-0.4-0.03-0.72-0.08-0.95-0.15s-0.4-0.17-0.5-0.3
			c-0.1-0.13-0.18-0.29-0.25-0.48l-4.85-14.6c-0.07-0.24-0.13-0.46-0.17-0.65c-0.04-0.19-0.07-0.33-0.07-0.42
			c-0.01-0.08-0.01-0.16-0.01-0.24c0-0.12,0.03-0.23,0.1-0.32c0.07-0.09,0.18-0.17,0.35-0.23s0.4-0.1,0.7-0.13
			c0.29-0.02,0.67-0.04,1.11-0.04c0.5,0,0.89,0.01,1.19,0.04s0.54,0.07,0.71,0.13c0.17,0.05,0.3,0.13,0.37,0.24s0.13,0.23,0.18,0.37
			l3.67,11.85l0.11,0.45l0.11-0.45l3.62-11.85c0.04-0.15,0.09-0.27,0.17-0.37s0.2-0.18,0.37-0.24c0.17-0.05,0.4-0.1,0.68-0.13
			s0.65-0.04,1.11-0.04c0.45,0,0.81,0.01,1.09,0.04c0.28,0.02,0.5,0.07,0.66,0.13c0.16,0.06,0.27,0.14,0.33,0.23
			C1304.86,22.7,1304.89,22.8,1304.89,22.92z"/>
		<path class="st0" d="M1311.99,17.47c0,0.92-0.19,1.55-0.56,1.9c-0.37,0.35-1.07,0.52-2.08,0.52c-1.03,0-1.72-0.17-2.07-0.51
			c-0.36-0.34-0.53-0.95-0.53-1.83c0-0.92,0.18-1.55,0.55-1.91c0.37-0.36,1.06-0.53,2.09-0.53c1.01,0,1.7,0.17,2.06,0.52
			C1311.81,15.98,1311.99,16.59,1311.99,17.47z M1311.65,39.08c0,0.12-0.04,0.23-0.11,0.32c-0.07,0.09-0.2,0.17-0.37,0.23
			c-0.18,0.06-0.41,0.11-0.7,0.14c-0.29,0.03-0.66,0.04-1.1,0.04s-0.81-0.02-1.1-0.04c-0.29-0.03-0.52-0.08-0.7-0.14
			s-0.3-0.14-0.37-0.23s-0.11-0.2-0.11-0.32V22.98c0-0.12,0.04-0.23,0.11-0.32c0.07-0.09,0.2-0.17,0.37-0.24s0.41-0.12,0.7-0.15
			c0.29-0.04,0.66-0.05,1.1-0.05s0.81,0.02,1.1,0.05c0.29,0.04,0.52,0.09,0.7,0.15c0.17,0.07,0.3,0.14,0.37,0.24
			c0.07,0.09,0.11,0.2,0.11,0.32V39.08z"/>
		<path class="st0" d="M1331.12,39.08c0,0.12-0.04,0.23-0.11,0.32s-0.19,0.17-0.36,0.23s-0.4,0.11-0.7,0.14
			c-0.3,0.03-0.66,0.04-1.09,0.04c-0.45,0-0.82-0.02-1.11-0.04c-0.3-0.03-0.53-0.08-0.7-0.14s-0.29-0.14-0.36-0.23
			s-0.11-0.2-0.11-0.32v-9.21c0-0.78-0.06-1.4-0.17-1.85c-0.12-0.45-0.28-0.83-0.5-1.15c-0.22-0.32-0.5-0.57-0.84-0.74
			s-0.75-0.26-1.2-0.26c-0.58,0-1.17,0.21-1.76,0.63c-0.59,0.42-1.21,1.04-1.85,1.85v10.73c0,0.12-0.04,0.23-0.11,0.32
			s-0.2,0.17-0.37,0.23s-0.41,0.11-0.7,0.14c-0.29,0.03-0.66,0.04-1.1,0.04s-0.81-0.02-1.1-0.04c-0.29-0.03-0.52-0.08-0.7-0.14
			c-0.18-0.06-0.3-0.14-0.37-0.23s-0.11-0.2-0.11-0.32V22.94c0-0.12,0.03-0.23,0.09-0.32c0.06-0.09,0.17-0.17,0.33-0.23
			c0.16-0.06,0.36-0.11,0.61-0.14c0.25-0.03,0.56-0.04,0.93-0.04c0.39,0,0.71,0.01,0.96,0.04c0.25,0.03,0.45,0.08,0.59,0.14
			s0.24,0.14,0.3,0.23c0.06,0.09,0.09,0.2,0.09,0.32v1.86c0.89-0.97,1.8-1.69,2.72-2.17s1.88-0.72,2.89-0.72
			c1.1,0,2.02,0.18,2.78,0.54c0.75,0.36,1.36,0.85,1.83,1.47c0.46,0.62,0.8,1.35,1,2.18c0.21,0.83,0.31,1.83,0.31,3V39.08z"/>
		<path class="st0" d="M1349.66,24.06c0,0.58-0.07,1.01-0.2,1.28c-0.13,0.28-0.3,0.42-0.49,0.42h-1.9c0.26,0.29,0.46,0.62,0.57,0.99
			c0.11,0.37,0.17,0.75,0.17,1.15c0,0.94-0.16,1.78-0.47,2.51c-0.31,0.73-0.76,1.34-1.35,1.85c-0.58,0.5-1.29,0.88-2.12,1.14
			c-0.83,0.26-1.75,0.39-2.76,0.39c-0.52,0-1.01-0.06-1.48-0.19s-0.83-0.27-1.09-0.44c-0.14,0.16-0.27,0.34-0.39,0.56
			c-0.12,0.22-0.17,0.46-0.17,0.72c0,0.35,0.15,0.64,0.46,0.86c0.31,0.22,0.74,0.35,1.29,0.37l3.93,0.14
			c0.92,0.04,1.73,0.17,2.45,0.39c0.72,0.22,1.32,0.54,1.81,0.94s0.86,0.89,1.12,1.46c0.26,0.57,0.39,1.21,0.39,1.94
			c0,0.8-0.17,1.55-0.52,2.25c-0.35,0.71-0.88,1.32-1.57,1.84c-0.7,0.52-1.58,0.93-2.63,1.23c-1.06,0.3-2.29,0.45-3.7,0.45
			c-1.38,0-2.55-0.11-3.52-0.33c-0.97-0.22-1.77-0.52-2.39-0.91s-1.07-0.85-1.36-1.38c-0.28-0.54-0.43-1.12-0.43-1.76
			c0-0.4,0.05-0.78,0.15-1.14c0.1-0.36,0.25-0.71,0.45-1.04s0.44-0.65,0.73-0.95c0.29-0.3,0.62-0.59,1-0.87
			c-0.52-0.28-0.92-0.65-1.2-1.13s-0.42-1-0.42-1.57c0-0.71,0.16-1.36,0.49-1.95s0.75-1.11,1.27-1.58
			c-0.42-0.42-0.76-0.93-1.01-1.52c-0.25-0.59-0.38-1.33-0.38-2.21c0-0.94,0.17-1.78,0.5-2.52c0.33-0.74,0.79-1.37,1.38-1.88
			c0.59-0.51,1.3-0.9,2.12-1.18s1.73-0.41,2.71-0.41c0.51,0,0.99,0.03,1.46,0.09c0.46,0.06,0.9,0.14,1.29,0.25h5.12
			c0.21,0,0.37,0.13,0.5,0.4S1349.66,23.43,1349.66,24.06z M1344.88,40.76c0-0.54-0.22-0.96-0.65-1.25
			c-0.43-0.29-1.03-0.45-1.79-0.47l-3.24-0.09c-0.31,0.23-0.56,0.45-0.75,0.66c-0.19,0.21-0.34,0.41-0.45,0.61s-0.19,0.38-0.23,0.56
			c-0.04,0.18-0.05,0.37-0.05,0.56c0,0.6,0.3,1.06,0.91,1.38c0.61,0.31,1.47,0.47,2.58,0.47c0.69,0,1.27-0.07,1.74-0.21
			s0.85-0.32,1.14-0.55c0.29-0.23,0.5-0.49,0.62-0.77C1344.82,41.38,1344.88,41.08,1344.88,40.76z M1343.82,27.88
			c0-0.87-0.24-1.54-0.72-2.03c-0.48-0.48-1.16-0.72-2.04-0.72c-0.45,0-0.84,0.08-1.18,0.23c-0.34,0.15-0.62,0.36-0.84,0.62
			c-0.22,0.26-0.39,0.56-0.5,0.9s-0.16,0.7-0.16,1.08c0,0.82,0.24,1.47,0.72,1.95s1.15,0.71,2.01,0.71c0.46,0,0.86-0.07,1.19-0.22
			c0.34-0.14,0.62-0.34,0.84-0.6c0.22-0.25,0.39-0.55,0.51-0.88C1343.76,28.59,1343.82,28.24,1343.82,27.88z"/>
		<path class="st0" d="M1376.42,30.85c0,1.38-0.18,2.63-0.54,3.76c-0.36,1.13-0.91,2.11-1.65,2.93c-0.74,0.82-1.66,1.45-2.77,1.9
			c-1.11,0.45-2.41,0.67-3.89,0.67c-1.44,0-2.68-0.2-3.75-0.6c-1.06-0.4-1.94-0.98-2.64-1.74c-0.7-0.76-1.22-1.7-1.56-2.81
			c-0.34-1.11-0.51-2.38-0.51-3.8c0-1.38,0.18-2.63,0.55-3.77c0.37-1.14,0.92-2.12,1.66-2.93c0.74-0.81,1.66-1.44,2.76-1.89
			c1.1-0.45,2.4-0.67,3.88-0.67c1.45,0,2.7,0.2,3.76,0.59c1.06,0.39,1.94,0.97,2.63,1.73c0.69,0.76,1.21,1.69,1.55,2.8
			C1376.25,28.14,1376.42,29.41,1376.42,30.85z M1371.73,31.03c0-0.8-0.06-1.53-0.19-2.2c-0.13-0.67-0.34-1.25-0.64-1.75
			c-0.3-0.49-0.7-0.88-1.2-1.16c-0.5-0.28-1.13-0.42-1.89-0.42c-0.68,0-1.27,0.12-1.77,0.37c-0.51,0.25-0.92,0.61-1.25,1.09
			c-0.33,0.48-0.57,1.05-0.73,1.72c-0.16,0.67-0.24,1.43-0.24,2.29c0,0.8,0.07,1.53,0.2,2.2c0.13,0.67,0.35,1.25,0.64,1.75
			c0.29,0.5,0.7,0.88,1.2,1.15c0.51,0.27,1.13,0.41,1.88,0.41c0.69,0,1.29-0.12,1.79-0.37c0.51-0.25,0.92-0.61,1.25-1.08
			c0.33-0.47,0.57-1.04,0.72-1.71C1371.66,32.65,1371.73,31.88,1371.73,31.03z"/>
		<path class="st0" d="M1389.91,24.44c0,0.43-0.01,0.79-0.04,1.07c-0.02,0.28-0.06,0.5-0.11,0.65c-0.05,0.16-0.11,0.27-0.19,0.33
			c-0.08,0.06-0.18,0.09-0.3,0.09c-0.1,0-0.21-0.02-0.33-0.06c-0.12-0.04-0.26-0.09-0.41-0.14c-0.15-0.05-0.32-0.09-0.5-0.14
			s-0.38-0.06-0.6-0.06c-0.25,0-0.51,0.05-0.76,0.15c-0.25,0.1-0.52,0.26-0.79,0.48c-0.27,0.22-0.55,0.51-0.85,0.87
			c-0.29,0.36-0.61,0.81-0.95,1.34v10.06c0,0.12-0.04,0.23-0.11,0.32c-0.07,0.09-0.2,0.17-0.37,0.23c-0.18,0.06-0.41,0.11-0.7,0.14
			c-0.29,0.03-0.66,0.04-1.1,0.04s-0.81-0.02-1.1-0.04c-0.29-0.03-0.52-0.08-0.7-0.14s-0.3-0.14-0.37-0.23s-0.11-0.2-0.11-0.32
			V22.94c0-0.12,0.03-0.23,0.09-0.32c0.06-0.09,0.17-0.17,0.33-0.23c0.16-0.06,0.36-0.11,0.61-0.14s0.56-0.04,0.93-0.04
			c0.39,0,0.71,0.01,0.96,0.04c0.25,0.03,0.45,0.08,0.59,0.14c0.14,0.06,0.24,0.14,0.3,0.23c0.06,0.09,0.09,0.2,0.09,0.32v2.01
			c0.42-0.6,0.82-1.1,1.19-1.49c0.37-0.39,0.73-0.7,1.07-0.93s0.68-0.39,1.01-0.48c0.34-0.09,0.68-0.14,1.01-0.14
			c0.16,0,0.33,0.01,0.51,0.03c0.18,0.02,0.37,0.05,0.56,0.09c0.19,0.04,0.36,0.09,0.51,0.14c0.14,0.05,0.25,0.11,0.32,0.17
			c0.07,0.06,0.11,0.13,0.14,0.2s0.06,0.17,0.08,0.3c0.02,0.13,0.04,0.32,0.05,0.57C1389.9,23.66,1389.91,24.01,1389.91,24.44z"/>
		<path class="st0" d="M900,112.92c0,0.92-0.17,1.72-0.52,2.42c-0.34,0.7-0.83,1.28-1.46,1.75c-0.63,0.47-1.37,0.82-2.23,1.06
			s-1.79,0.35-2.79,0.35c-0.6,0-1.18-0.04-1.73-0.14c-0.55-0.09-1.04-0.21-1.47-0.34c-0.43-0.14-0.8-0.28-1.09-0.42
			c-0.29-0.14-0.5-0.28-0.63-0.41c-0.13-0.13-0.24-0.33-0.31-0.6c-0.07-0.27-0.11-0.67-0.11-1.2c0-0.35,0.01-0.63,0.04-0.84
			c0.02-0.21,0.06-0.38,0.11-0.51c0.05-0.13,0.11-0.21,0.18-0.25c0.07-0.04,0.16-0.06,0.27-0.06c0.13,0,0.33,0.08,0.59,0.23
			c0.26,0.15,0.58,0.32,0.97,0.5c0.39,0.18,0.83,0.35,1.35,0.51c0.51,0.16,1.09,0.23,1.75,0.23c0.41,0,0.78-0.04,1.09-0.13
			c0.32-0.08,0.6-0.21,0.83-0.36c0.23-0.16,0.41-0.36,0.53-0.6c0.12-0.24,0.18-0.52,0.18-0.83c0-0.36-0.11-0.67-0.33-0.93
			c-0.22-0.26-0.52-0.49-0.89-0.68c-0.37-0.19-0.78-0.37-1.25-0.54s-0.94-0.36-1.43-0.56c-0.49-0.21-0.96-0.44-1.43-0.71
			c-0.46-0.26-0.88-0.59-1.25-0.98c-0.37-0.39-0.66-0.85-0.89-1.39c-0.22-0.54-0.33-1.19-0.33-1.96c0-0.77,0.15-1.48,0.45-2.13
			s0.74-1.2,1.3-1.66c0.57-0.46,1.26-0.81,2.07-1.07c0.81-0.25,1.73-0.38,2.74-0.38c0.51,0,1,0.04,1.48,0.11
			c0.48,0.07,0.91,0.16,1.29,0.27c0.39,0.11,0.71,0.23,0.98,0.35c0.27,0.13,0.46,0.24,0.57,0.33c0.11,0.09,0.2,0.18,0.24,0.27
			c0.05,0.09,0.08,0.2,0.11,0.33c0.02,0.13,0.05,0.28,0.06,0.47c0.02,0.19,0.03,0.42,0.03,0.7c0,0.33-0.01,0.59-0.03,0.8
			c-0.02,0.21-0.05,0.37-0.09,0.49c-0.04,0.12-0.1,0.2-0.17,0.24s-0.16,0.06-0.25,0.06c-0.11,0-0.28-0.06-0.51-0.19
			s-0.52-0.26-0.86-0.41s-0.74-0.28-1.19-0.41s-0.97-0.19-1.55-0.19c-0.41,0-0.77,0.04-1.07,0.13c-0.3,0.08-0.55,0.21-0.74,0.36
			c-0.19,0.16-0.34,0.34-0.43,0.55s-0.14,0.44-0.14,0.68c0,0.37,0.11,0.69,0.34,0.94c0.23,0.25,0.53,0.48,0.9,0.67
			c0.37,0.19,0.8,0.37,1.28,0.54c0.48,0.17,0.96,0.35,1.45,0.55s0.97,0.43,1.45,0.7c0.48,0.26,0.9,0.59,1.28,0.98
			c0.37,0.39,0.67,0.85,0.9,1.38S900,112.18,900,112.92z"/>
		<path class="st0" d="M918.1,117.48c0,0.12-0.04,0.23-0.11,0.32c-0.07,0.09-0.19,0.17-0.36,0.23s-0.4,0.11-0.7,0.14
			c-0.3,0.03-0.66,0.04-1.09,0.04c-0.45,0-0.82-0.01-1.11-0.04s-0.53-0.08-0.7-0.14s-0.29-0.14-0.36-0.23
			c-0.07-0.09-0.11-0.2-0.11-0.32v-9.21c0-0.78-0.06-1.4-0.17-1.85c-0.12-0.45-0.28-0.83-0.5-1.15c-0.22-0.32-0.5-0.57-0.84-0.74
			s-0.75-0.26-1.2-0.26c-0.58,0-1.17,0.21-1.76,0.63s-1.21,1.04-1.85,1.85v10.73c0,0.12-0.04,0.23-0.11,0.32
			c-0.07,0.09-0.2,0.17-0.37,0.23s-0.41,0.11-0.7,0.14c-0.29,0.03-0.66,0.04-1.1,0.04s-0.81-0.01-1.1-0.04
			c-0.29-0.03-0.52-0.08-0.7-0.14c-0.18-0.06-0.3-0.14-0.37-0.23c-0.07-0.09-0.11-0.2-0.11-0.32v-23.8c0-0.12,0.04-0.23,0.11-0.33
			s0.2-0.18,0.37-0.24c0.17-0.07,0.41-0.12,0.7-0.15c0.29-0.04,0.66-0.05,1.1-0.05s0.81,0.02,1.1,0.05c0.29,0.04,0.52,0.09,0.7,0.15
			s0.3,0.15,0.37,0.24s0.11,0.21,0.11,0.33v8.92c0.78-0.77,1.58-1.35,2.4-1.73s1.66-0.57,2.54-0.57c1.1,0,2.02,0.18,2.78,0.54
			c0.75,0.36,1.36,0.86,1.83,1.48c0.46,0.63,0.8,1.36,1,2.2c0.21,0.84,0.31,1.85,0.31,3.05V117.48z"/>
		<path class="st0" d="M926.73,95.87c0,0.92-0.19,1.55-0.56,1.9c-0.37,0.35-1.07,0.52-2.08,0.52c-1.03,0-1.72-0.17-2.07-0.51
			c-0.36-0.34-0.53-0.95-0.53-1.83c0-0.92,0.18-1.55,0.55-1.91c0.37-0.36,1.06-0.53,2.09-0.53c1.01,0,1.7,0.17,2.06,0.52
			C926.55,94.38,926.73,94.99,926.73,95.87z M926.39,117.48c0,0.12-0.04,0.23-0.11,0.32c-0.07,0.09-0.2,0.17-0.37,0.23
			c-0.18,0.06-0.41,0.11-0.7,0.14c-0.29,0.03-0.66,0.04-1.1,0.04s-0.81-0.01-1.1-0.04c-0.29-0.03-0.52-0.08-0.7-0.14
			s-0.3-0.14-0.37-0.23c-0.07-0.09-0.11-0.2-0.11-0.32v-16.1c0-0.12,0.04-0.23,0.11-0.32c0.07-0.09,0.2-0.17,0.37-0.24
			c0.17-0.07,0.41-0.12,0.7-0.15c0.29-0.04,0.66-0.05,1.1-0.05s0.81,0.02,1.1,0.05c0.29,0.04,0.52,0.09,0.7,0.15
			c0.17,0.07,0.3,0.15,0.37,0.24c0.07,0.09,0.11,0.2,0.11,0.32V117.48z"/>
		<path class="st0" d="M946.44,109.17c0,1.44-0.15,2.73-0.46,3.88c-0.31,1.15-0.76,2.13-1.35,2.94c-0.59,0.81-1.33,1.43-2.21,1.86
			c-0.88,0.43-1.89,0.65-3.02,0.65c-0.47,0-0.9-0.04-1.29-0.14c-0.39-0.09-0.77-0.23-1.14-0.42c-0.37-0.19-0.73-0.42-1.09-0.7
			s-0.74-0.6-1.12-0.98v7.6c0,0.12-0.04,0.23-0.11,0.33s-0.2,0.18-0.37,0.25c-0.17,0.07-0.41,0.12-0.7,0.15
			c-0.29,0.04-0.66,0.05-1.1,0.05s-0.81-0.02-1.1-0.05c-0.29-0.04-0.52-0.09-0.7-0.15c-0.18-0.07-0.3-0.15-0.37-0.25
			s-0.11-0.21-0.11-0.33v-22.55c0-0.12,0.03-0.23,0.09-0.32c0.06-0.09,0.17-0.17,0.32-0.23c0.15-0.06,0.35-0.11,0.6-0.14
			s0.56-0.05,0.93-0.05c0.36,0,0.67,0.02,0.91,0.05s0.45,0.08,0.6,0.14c0.15,0.06,0.26,0.14,0.32,0.23c0.06,0.09,0.09,0.2,0.09,0.32
			v1.9c0.47-0.48,0.93-0.91,1.38-1.28s0.91-0.68,1.38-0.92c0.47-0.25,0.96-0.43,1.46-0.55c0.5-0.12,1.03-0.18,1.6-0.18
			c1.18,0,2.19,0.23,3.02,0.7c0.83,0.46,1.51,1.1,2.04,1.91c0.53,0.81,0.91,1.75,1.15,2.82
			C946.32,106.81,946.44,107.95,946.44,109.17z M941.7,109.5c0-0.69-0.05-1.35-0.15-1.98c-0.1-0.63-0.28-1.2-0.52-1.69
			c-0.25-0.49-0.57-0.89-0.98-1.19c-0.4-0.29-0.91-0.44-1.51-0.44c-0.3,0-0.6,0.05-0.9,0.14c-0.3,0.09-0.6,0.24-0.91,0.44
			s-0.62,0.47-0.95,0.8c-0.33,0.33-0.67,0.73-1.03,1.21v5.32c0.64,0.81,1.25,1.43,1.83,1.87s1.18,0.66,1.81,0.66
			c0.59,0,1.09-0.15,1.51-0.45s0.76-0.7,1.02-1.19c0.26-0.49,0.46-1.04,0.59-1.66S941.7,110.11,941.7,109.5z"/>
		<path class="st0" d="M965.59,109.17c0,1.44-0.15,2.73-0.46,3.88c-0.31,1.15-0.76,2.13-1.35,2.94s-1.33,1.43-2.21,1.86
			c-0.88,0.43-1.89,0.65-3.02,0.65c-0.47,0-0.9-0.04-1.29-0.14c-0.39-0.09-0.77-0.23-1.14-0.42c-0.37-0.19-0.73-0.42-1.09-0.7
			c-0.36-0.28-0.74-0.6-1.12-0.98v7.6c0,0.12-0.04,0.23-0.11,0.33c-0.07,0.1-0.2,0.18-0.37,0.25c-0.18,0.07-0.41,0.12-0.7,0.15
			c-0.29,0.04-0.66,0.05-1.1,0.05s-0.81-0.02-1.1-0.05c-0.29-0.04-0.52-0.09-0.7-0.15c-0.17-0.07-0.3-0.15-0.37-0.25
			s-0.11-0.21-0.11-0.33v-22.55c0-0.12,0.03-0.23,0.09-0.32c0.06-0.09,0.17-0.17,0.32-0.23c0.15-0.06,0.35-0.11,0.6-0.14
			s0.56-0.05,0.93-0.05c0.36,0,0.67,0.02,0.91,0.05c0.25,0.03,0.45,0.08,0.6,0.14c0.15,0.06,0.26,0.14,0.32,0.23
			c0.06,0.09,0.09,0.2,0.09,0.32v1.9c0.47-0.48,0.93-0.91,1.38-1.28c0.45-0.37,0.91-0.68,1.38-0.92s0.96-0.43,1.46-0.55
			c0.5-0.12,1.03-0.18,1.6-0.18c1.18,0,2.19,0.23,3.02,0.7c0.83,0.46,1.51,1.1,2.04,1.91c0.52,0.81,0.91,1.75,1.15,2.82
			C965.46,106.81,965.59,107.95,965.59,109.17z M960.84,109.5c0-0.69-0.05-1.35-0.15-1.98c-0.1-0.63-0.28-1.2-0.53-1.69
			c-0.25-0.49-0.57-0.89-0.98-1.19c-0.4-0.29-0.91-0.44-1.51-0.44c-0.3,0-0.6,0.05-0.9,0.14c-0.3,0.09-0.6,0.24-0.9,0.44
			s-0.62,0.47-0.95,0.8c-0.33,0.33-0.67,0.73-1.03,1.21v5.32c0.64,0.81,1.25,1.43,1.83,1.87s1.18,0.66,1.81,0.66
			c0.59,0,1.09-0.15,1.51-0.45c0.42-0.3,0.76-0.7,1.02-1.19s0.46-1.04,0.59-1.66C960.78,110.73,960.84,110.11,960.84,109.5z"/>
		<path class="st0" d="M973.39,95.87c0,0.92-0.19,1.55-0.56,1.9c-0.37,0.35-1.07,0.52-2.08,0.52c-1.03,0-1.72-0.17-2.07-0.51
			s-0.53-0.95-0.53-1.83c0-0.92,0.18-1.55,0.55-1.91c0.37-0.36,1.06-0.53,2.09-0.53c1.01,0,1.7,0.17,2.06,0.52
			C973.21,94.38,973.39,94.99,973.39,95.87z M973.04,117.48c0,0.12-0.04,0.23-0.11,0.32c-0.07,0.09-0.2,0.17-0.37,0.23
			s-0.41,0.11-0.7,0.14c-0.29,0.03-0.66,0.04-1.1,0.04s-0.81-0.01-1.1-0.04c-0.29-0.03-0.52-0.08-0.7-0.14
			c-0.18-0.06-0.3-0.14-0.37-0.23c-0.07-0.09-0.11-0.2-0.11-0.32v-16.1c0-0.12,0.04-0.23,0.11-0.32c0.07-0.09,0.2-0.17,0.37-0.24
			c0.17-0.07,0.41-0.12,0.7-0.15c0.29-0.04,0.66-0.05,1.1-0.05s0.81,0.02,1.1,0.05c0.29,0.04,0.52,0.09,0.7,0.15
			c0.17,0.07,0.3,0.15,0.37,0.24c0.07,0.09,0.11,0.2,0.11,0.32V117.48z"/>
		<path class="st0" d="M992.26,117.48c0,0.12-0.04,0.23-0.11,0.32c-0.07,0.09-0.19,0.17-0.36,0.23s-0.4,0.11-0.7,0.14
			c-0.29,0.03-0.66,0.04-1.09,0.04c-0.45,0-0.82-0.01-1.11-0.04c-0.3-0.03-0.53-0.08-0.7-0.14s-0.29-0.14-0.36-0.23
			c-0.07-0.09-0.11-0.2-0.11-0.32v-9.21c0-0.78-0.06-1.4-0.17-1.85c-0.12-0.45-0.28-0.83-0.5-1.15s-0.5-0.57-0.84-0.74
			s-0.75-0.26-1.2-0.26c-0.58,0-1.16,0.21-1.75,0.63c-0.59,0.42-1.21,1.04-1.85,1.85v10.73c0,0.12-0.04,0.23-0.11,0.32
			c-0.07,0.09-0.2,0.17-0.37,0.23c-0.18,0.06-0.41,0.11-0.7,0.14c-0.29,0.03-0.66,0.04-1.1,0.04s-0.81-0.01-1.1-0.04
			c-0.29-0.03-0.52-0.08-0.7-0.14s-0.3-0.14-0.37-0.23c-0.07-0.09-0.11-0.2-0.11-0.32v-16.14c0-0.12,0.03-0.23,0.09-0.32
			c0.06-0.09,0.17-0.17,0.33-0.23c0.16-0.06,0.36-0.11,0.61-0.14s0.56-0.05,0.93-0.05c0.39,0,0.71,0.02,0.96,0.05
			c0.25,0.03,0.45,0.08,0.59,0.14c0.14,0.06,0.24,0.14,0.3,0.23c0.06,0.09,0.09,0.2,0.09,0.32v1.86c0.89-0.96,1.8-1.69,2.72-2.17
			c0.92-0.48,1.88-0.72,2.89-0.72c1.1,0,2.02,0.18,2.78,0.54c0.75,0.36,1.36,0.85,1.83,1.47c0.46,0.62,0.8,1.35,1,2.18
			c0.2,0.83,0.31,1.83,0.31,3V117.48z"/>
		<path class="st0" d="M1010.54,102.46c0,0.58-0.07,1.01-0.2,1.29s-0.3,0.42-0.49,0.42h-1.9c0.26,0.29,0.46,0.62,0.57,0.99
			c0.11,0.37,0.17,0.75,0.17,1.15c0,0.94-0.16,1.78-0.47,2.51c-0.31,0.73-0.76,1.35-1.35,1.85c-0.58,0.5-1.29,0.88-2.12,1.14
			c-0.83,0.26-1.75,0.39-2.76,0.39c-0.52,0-1.01-0.06-1.48-0.19c-0.47-0.13-0.83-0.27-1.09-0.44c-0.14,0.16-0.27,0.34-0.39,0.56
			c-0.12,0.22-0.17,0.46-0.17,0.72c0,0.35,0.15,0.64,0.46,0.86c0.31,0.22,0.74,0.35,1.29,0.37l3.93,0.14
			c0.92,0.04,1.73,0.17,2.45,0.39c0.72,0.22,1.32,0.54,1.81,0.94c0.49,0.4,0.86,0.89,1.12,1.46c0.26,0.57,0.39,1.21,0.39,1.94
			c0,0.8-0.17,1.55-0.52,2.25c-0.35,0.71-0.88,1.32-1.57,1.84c-0.7,0.52-1.58,0.93-2.63,1.23c-1.06,0.3-2.29,0.45-3.7,0.45
			c-1.38,0-2.55-0.11-3.52-0.33c-0.97-0.22-1.77-0.52-2.39-0.9c-0.62-0.39-1.07-0.85-1.36-1.38c-0.28-0.54-0.43-1.12-0.43-1.76
			c0-0.4,0.05-0.78,0.15-1.14c0.1-0.36,0.25-0.71,0.45-1.04c0.2-0.33,0.44-0.65,0.73-0.95c0.29-0.3,0.62-0.59,1-0.87
			c-0.52-0.28-0.92-0.65-1.2-1.13s-0.42-1-0.42-1.57c0-0.71,0.16-1.36,0.49-1.95c0.33-0.58,0.75-1.11,1.27-1.58
			c-0.42-0.42-0.76-0.93-1.01-1.52c-0.25-0.59-0.38-1.33-0.38-2.21c0-0.94,0.17-1.78,0.5-2.52s0.79-1.37,1.38-1.88
			c0.59-0.51,1.3-0.91,2.12-1.18s1.73-0.41,2.71-0.41c0.51,0,0.99,0.03,1.46,0.09c0.46,0.06,0.9,0.14,1.29,0.25h5.12
			c0.21,0,0.37,0.13,0.5,0.4C1010.47,101.38,1010.54,101.83,1010.54,102.46z M1005.76,119.16c0-0.54-0.22-0.96-0.65-1.25
			c-0.43-0.29-1.03-0.45-1.79-0.47l-3.24-0.09c-0.31,0.23-0.56,0.45-0.75,0.66c-0.19,0.21-0.34,0.41-0.45,0.61
			c-0.11,0.19-0.19,0.38-0.23,0.56s-0.05,0.37-0.05,0.56c0,0.6,0.3,1.06,0.91,1.38c0.61,0.31,1.47,0.47,2.58,0.47
			c0.69,0,1.27-0.07,1.74-0.21s0.85-0.32,1.14-0.55c0.29-0.23,0.5-0.49,0.62-0.77C1005.7,119.77,1005.76,119.47,1005.76,119.16z
			 M1004.69,106.28c0-0.87-0.24-1.54-0.72-2.03s-1.16-0.72-2.04-0.72c-0.45,0-0.84,0.08-1.18,0.23c-0.34,0.15-0.62,0.36-0.84,0.62
			c-0.22,0.26-0.39,0.56-0.5,0.91s-0.16,0.7-0.16,1.08c0,0.82,0.24,1.47,0.72,1.95s1.15,0.71,2.01,0.71c0.46,0,0.86-0.07,1.19-0.22
			s0.62-0.34,0.84-0.6c0.22-0.25,0.39-0.54,0.51-0.88C1004.64,106.98,1004.69,106.64,1004.69,106.28z"/>
		<path class="st0" d="M1030.01,115.88c0,0.53-0.03,0.94-0.1,1.22c-0.07,0.28-0.15,0.48-0.26,0.6s-0.27,0.22-0.48,0.31
			c-0.21,0.09-0.46,0.17-0.74,0.24s-0.59,0.12-0.92,0.15s-0.67,0.05-1,0.05c-0.91,0-1.69-0.12-2.35-0.34
			c-0.66-0.23-1.21-0.58-1.65-1.06c-0.43-0.48-0.75-1.08-0.96-1.8s-0.31-1.58-0.31-2.57v-8.27h-1.94c-0.23,0-0.4-0.14-0.53-0.43
			c-0.12-0.28-0.18-0.76-0.18-1.42c0-0.35,0.01-0.65,0.04-0.89s0.08-0.43,0.14-0.57s0.14-0.24,0.23-0.3s0.2-0.09,0.32-0.09h1.92
			v-3.6c0-0.12,0.03-0.23,0.1-0.33c0.07-0.1,0.19-0.18,0.36-0.24c0.17-0.07,0.41-0.11,0.71-0.14c0.3-0.03,0.66-0.04,1.1-0.04
			c0.45,0,0.82,0.01,1.11,0.04s0.53,0.08,0.7,0.14c0.17,0.07,0.29,0.15,0.36,0.24c0.07,0.1,0.11,0.21,0.11,0.33v3.6h3.51
			c0.12,0,0.23,0.03,0.32,0.09c0.09,0.06,0.17,0.16,0.23,0.3s0.11,0.33,0.14,0.57s0.04,0.54,0.04,0.89c0,0.66-0.06,1.14-0.18,1.42
			c-0.12,0.28-0.3,0.43-0.52,0.43h-3.53v7.58c0,0.88,0.14,1.54,0.42,1.98c0.28,0.44,0.77,0.66,1.48,0.66c0.24,0,0.46-0.02,0.65-0.06
			c0.19-0.04,0.37-0.09,0.52-0.14s0.28-0.1,0.38-0.14s0.2-0.06,0.28-0.06c0.07,0,0.14,0.02,0.21,0.06c0.07,0.04,0.12,0.13,0.15,0.25
			s0.07,0.3,0.1,0.52C1030,115.27,1030.01,115.55,1030.01,115.88z"/>
		<path class="st0" d="M1047.98,117.48c0,0.12-0.04,0.23-0.11,0.32c-0.07,0.09-0.19,0.17-0.36,0.23s-0.4,0.11-0.7,0.14
			c-0.3,0.03-0.66,0.04-1.09,0.04c-0.45,0-0.82-0.01-1.11-0.04s-0.53-0.08-0.7-0.14s-0.29-0.14-0.36-0.23
			c-0.07-0.09-0.11-0.2-0.11-0.32v-9.21c0-0.78-0.06-1.4-0.17-1.85c-0.12-0.45-0.28-0.83-0.5-1.15c-0.22-0.32-0.5-0.57-0.84-0.74
			s-0.75-0.26-1.2-0.26c-0.58,0-1.17,0.21-1.76,0.63s-1.21,1.04-1.85,1.85v10.73c0,0.12-0.04,0.23-0.11,0.32
			c-0.07,0.09-0.2,0.17-0.37,0.23s-0.41,0.11-0.7,0.14c-0.29,0.03-0.66,0.04-1.1,0.04s-0.81-0.01-1.1-0.04
			c-0.29-0.03-0.52-0.08-0.7-0.14c-0.18-0.06-0.3-0.14-0.37-0.23c-0.07-0.09-0.11-0.2-0.11-0.32v-23.8c0-0.12,0.04-0.23,0.11-0.33
			s0.2-0.18,0.37-0.24c0.17-0.07,0.41-0.12,0.7-0.15c0.29-0.04,0.66-0.05,1.1-0.05s0.81,0.02,1.1,0.05c0.29,0.04,0.52,0.09,0.7,0.15
			s0.3,0.15,0.37,0.24s0.11,0.21,0.11,0.33v8.92c0.78-0.77,1.58-1.35,2.4-1.73s1.66-0.57,2.54-0.57c1.1,0,2.02,0.18,2.78,0.54
			c0.75,0.36,1.36,0.86,1.83,1.48c0.46,0.63,0.8,1.36,1,2.2c0.21,0.84,0.31,1.85,0.31,3.05V117.48z"/>
		<path class="st0" d="M1066.62,108.94c0,0.55-0.12,0.97-0.37,1.23c-0.25,0.27-0.59,0.4-1.02,0.4h-9.83c0,0.69,0.08,1.31,0.24,1.87
			c0.16,0.56,0.42,1.04,0.78,1.43c0.36,0.39,0.81,0.69,1.38,0.9c0.56,0.21,1.23,0.31,2.02,0.31c0.8,0,1.5-0.06,2.1-0.17
			c0.6-0.12,1.12-0.24,1.57-0.38s0.8-0.27,1.09-0.38c0.29-0.11,0.52-0.17,0.71-0.17c0.11,0,0.2,0.02,0.27,0.06
			c0.07,0.04,0.13,0.12,0.18,0.23c0.05,0.11,0.08,0.26,0.1,0.46c0.02,0.2,0.03,0.45,0.03,0.75c0,0.27-0.01,0.49-0.02,0.68
			c-0.01,0.19-0.03,0.35-0.05,0.48c-0.02,0.13-0.06,0.24-0.11,0.33s-0.11,0.18-0.19,0.26c-0.08,0.08-0.29,0.2-0.64,0.34
			c-0.35,0.14-0.8,0.29-1.34,0.42c-0.54,0.14-1.17,0.26-1.86,0.36c-0.7,0.1-1.45,0.15-2.24,0.15c-1.44,0-2.69-0.18-3.77-0.54
			c-1.08-0.36-1.98-0.91-2.71-1.65c-0.72-0.74-1.26-1.66-1.62-2.79s-0.53-2.44-0.53-3.95c0-1.44,0.19-2.73,0.56-3.88
			c0.37-1.15,0.92-2.13,1.63-2.93c0.71-0.8,1.58-1.42,2.6-1.84c1.02-0.42,2.17-0.63,3.45-0.63c1.35,0,2.51,0.2,3.46,0.6
			c0.96,0.4,1.75,0.95,2.36,1.66c0.62,0.71,1.07,1.54,1.36,2.51s0.43,2.01,0.43,3.15V108.94z M1062.2,107.63
			c0.04-1.28-0.22-2.28-0.77-3.01c-0.55-0.73-1.4-1.09-2.54-1.09c-0.58,0-1.08,0.11-1.51,0.33c-0.43,0.22-0.78,0.51-1.07,0.88
			s-0.5,0.8-0.65,1.3c-0.15,0.5-0.24,1.03-0.26,1.6H1062.2z"/>
		<path class="st0" d="M1093.51,109.17c0,1.44-0.15,2.73-0.46,3.88c-0.31,1.15-0.76,2.13-1.35,2.94s-1.33,1.43-2.21,1.86
			c-0.88,0.43-1.89,0.65-3.02,0.65c-0.47,0-0.9-0.04-1.29-0.14c-0.39-0.09-0.77-0.23-1.14-0.42c-0.37-0.19-0.73-0.42-1.09-0.7
			c-0.36-0.28-0.74-0.6-1.12-0.98v7.6c0,0.12-0.04,0.23-0.11,0.33c-0.07,0.1-0.2,0.18-0.37,0.25c-0.18,0.07-0.41,0.12-0.7,0.15
			c-0.29,0.04-0.66,0.05-1.1,0.05s-0.81-0.02-1.1-0.05c-0.29-0.04-0.52-0.09-0.7-0.15c-0.17-0.07-0.3-0.15-0.37-0.25
			s-0.11-0.21-0.11-0.33v-22.55c0-0.12,0.03-0.23,0.09-0.32c0.06-0.09,0.17-0.17,0.32-0.23c0.15-0.06,0.35-0.11,0.6-0.14
			s0.56-0.05,0.93-0.05c0.36,0,0.67,0.02,0.91,0.05c0.25,0.03,0.45,0.08,0.6,0.14c0.15,0.06,0.26,0.14,0.32,0.23
			c0.06,0.09,0.09,0.2,0.09,0.32v1.9c0.47-0.48,0.93-0.91,1.38-1.28c0.45-0.37,0.91-0.68,1.38-0.92s0.96-0.43,1.46-0.55
			c0.5-0.12,1.03-0.18,1.6-0.18c1.18,0,2.19,0.23,3.02,0.7c0.83,0.46,1.51,1.1,2.04,1.91c0.52,0.81,0.91,1.75,1.15,2.82
			C1093.39,106.81,1093.51,107.95,1093.51,109.17z M1088.77,109.5c0-0.69-0.05-1.35-0.15-1.98c-0.1-0.63-0.28-1.2-0.53-1.69
			c-0.25-0.49-0.57-0.89-0.98-1.19c-0.4-0.29-0.91-0.44-1.51-0.44c-0.3,0-0.6,0.05-0.9,0.14c-0.3,0.09-0.6,0.24-0.9,0.44
			s-0.62,0.47-0.95,0.8c-0.33,0.33-0.67,0.73-1.03,1.21v5.32c0.64,0.81,1.25,1.43,1.83,1.87s1.18,0.66,1.81,0.66
			c0.59,0,1.09-0.15,1.51-0.45c0.42-0.3,0.76-0.7,1.02-1.19s0.46-1.04,0.59-1.66C1088.71,110.73,1088.77,110.11,1088.77,109.5z"/>
		<path class="st0" d="M1106.78,102.84c0,0.43-0.01,0.79-0.04,1.07s-0.06,0.49-0.11,0.65c-0.05,0.16-0.11,0.27-0.19,0.33
			c-0.08,0.06-0.18,0.09-0.3,0.09c-0.1,0-0.21-0.02-0.33-0.06c-0.12-0.04-0.26-0.09-0.41-0.14c-0.15-0.05-0.32-0.09-0.5-0.14
			c-0.18-0.04-0.38-0.06-0.6-0.06c-0.25,0-0.51,0.05-0.76,0.15c-0.25,0.1-0.52,0.26-0.79,0.48s-0.56,0.51-0.85,0.87
			c-0.3,0.36-0.61,0.81-0.95,1.34v10.06c0,0.12-0.04,0.23-0.11,0.32c-0.07,0.09-0.2,0.17-0.37,0.23s-0.41,0.11-0.7,0.14
			c-0.29,0.03-0.66,0.04-1.1,0.04s-0.81-0.01-1.1-0.04c-0.29-0.03-0.52-0.08-0.7-0.14c-0.18-0.06-0.3-0.14-0.37-0.23
			c-0.07-0.09-0.11-0.2-0.11-0.32v-16.14c0-0.12,0.03-0.23,0.09-0.32c0.06-0.09,0.17-0.17,0.33-0.23c0.16-0.06,0.36-0.11,0.61-0.14
			c0.25-0.03,0.56-0.05,0.93-0.05c0.39,0,0.71,0.02,0.96,0.05c0.25,0.03,0.45,0.08,0.59,0.14s0.24,0.14,0.3,0.23
			c0.06,0.09,0.09,0.2,0.09,0.32v2.01c0.42-0.6,0.82-1.1,1.19-1.49c0.37-0.39,0.73-0.7,1.07-0.93c0.34-0.23,0.67-0.39,1.01-0.48
			c0.34-0.09,0.68-0.14,1.01-0.14c0.16,0,0.33,0.01,0.51,0.03c0.18,0.02,0.37,0.05,0.56,0.09c0.19,0.04,0.36,0.09,0.51,0.14
			s0.25,0.11,0.32,0.17s0.12,0.13,0.15,0.2c0.03,0.07,0.06,0.17,0.08,0.3c0.02,0.13,0.04,0.32,0.05,0.57
			C1106.77,102.06,1106.78,102.4,1106.78,102.84z"/>
		<path class="st0" d="M1125.16,109.24c0,1.38-0.18,2.63-0.54,3.76c-0.36,1.13-0.91,2.11-1.65,2.93c-0.74,0.82-1.66,1.45-2.77,1.9
			c-1.11,0.45-2.41,0.67-3.89,0.67c-1.44,0-2.68-0.2-3.75-0.6s-1.94-0.98-2.64-1.74c-0.7-0.76-1.22-1.69-1.56-2.8
			c-0.34-1.11-0.51-2.38-0.51-3.8c0-1.38,0.18-2.63,0.55-3.77c0.37-1.14,0.92-2.12,1.66-2.93c0.74-0.81,1.66-1.44,2.76-1.89
			s2.4-0.67,3.88-0.67c1.45,0,2.7,0.2,3.76,0.59c1.06,0.39,1.94,0.97,2.63,1.73c0.69,0.76,1.21,1.7,1.55,2.8
			C1124.99,106.54,1125.16,107.81,1125.16,109.24z M1120.47,109.42c0-0.8-0.06-1.53-0.19-2.2c-0.13-0.67-0.34-1.25-0.64-1.75
			s-0.7-0.88-1.2-1.16s-1.13-0.42-1.89-0.42c-0.68,0-1.27,0.12-1.77,0.37s-0.92,0.61-1.25,1.08c-0.33,0.48-0.57,1.05-0.73,1.72
			c-0.16,0.67-0.24,1.43-0.24,2.29c0,0.8,0.07,1.53,0.2,2.2c0.13,0.67,0.35,1.25,0.64,1.75c0.3,0.5,0.7,0.88,1.2,1.15
			c0.51,0.27,1.13,0.41,1.88,0.41c0.69,0,1.28-0.12,1.79-0.37s0.92-0.61,1.25-1.08c0.33-0.47,0.57-1.04,0.72-1.71
			C1120.4,111.04,1120.47,110.28,1120.47,109.42z"/>
		<path class="st0" d="M1143.33,117.48c0,0.13-0.03,0.24-0.09,0.33s-0.16,0.17-0.31,0.23c-0.14,0.06-0.34,0.1-0.59,0.13
			s-0.55,0.04-0.91,0.04c-0.39,0-0.7-0.01-0.94-0.04c-0.24-0.02-0.44-0.07-0.59-0.13c-0.15-0.06-0.26-0.14-0.33-0.23
			s-0.1-0.2-0.1-0.33v-1.79c-0.83,0.89-1.7,1.59-2.62,2.08c-0.91,0.49-1.92,0.74-3.03,0.74c-1.23,0-2.27-0.24-3.12-0.71
			c-0.85-0.48-1.54-1.12-2.08-1.93c-0.54-0.81-0.93-1.75-1.17-2.83c-0.24-1.08-0.36-2.22-0.36-3.41c0-1.44,0.15-2.73,0.46-3.87
			s0.76-2.12,1.35-2.93c0.59-0.81,1.33-1.43,2.21-1.86c0.88-0.43,1.89-0.65,3.04-0.65c0.91,0,1.73,0.18,2.46,0.55
			c0.74,0.37,1.47,0.91,2.19,1.62v-8.74c0-0.12,0.03-0.23,0.1-0.33c0.07-0.1,0.19-0.18,0.36-0.24s0.41-0.12,0.7-0.15
			c0.29-0.04,0.66-0.05,1.1-0.05c0.45,0,0.81,0.02,1.1,0.05c0.29,0.04,0.52,0.09,0.69,0.15s0.29,0.15,0.36,0.24
			c0.07,0.1,0.11,0.21,0.11,0.33V117.48z M1138.81,106.69c-0.65-0.82-1.28-1.45-1.87-1.88c-0.6-0.43-1.22-0.65-1.87-0.65
			c-0.59,0-1.1,0.15-1.53,0.44c-0.43,0.3-0.77,0.69-1.03,1.19c-0.26,0.5-0.45,1.05-0.58,1.66c-0.13,0.61-0.19,1.23-0.19,1.87
			c0,0.68,0.05,1.33,0.16,1.97s0.29,1.21,0.53,1.71c0.25,0.5,0.58,0.9,0.99,1.2c0.41,0.3,0.93,0.45,1.56,0.45
			c0.31,0,0.62-0.05,0.91-0.14c0.29-0.09,0.6-0.24,0.9-0.44s0.62-0.47,0.95-0.81c0.33-0.33,0.68-0.74,1.07-1.22V106.69z"/>
		<path class="st0" d="M1162.48,117.48c0,0.12-0.03,0.23-0.09,0.32c-0.06,0.09-0.17,0.17-0.32,0.23c-0.15,0.06-0.35,0.11-0.6,0.14
			s-0.56,0.04-0.93,0.04c-0.4,0-0.72-0.01-0.97-0.04s-0.44-0.08-0.59-0.14s-0.25-0.14-0.31-0.23c-0.06-0.09-0.09-0.2-0.09-0.32
			v-1.86c-0.89,0.96-1.8,1.69-2.72,2.17s-1.88,0.72-2.87,0.72c-1.11,0-2.04-0.18-2.8-0.54c-0.75-0.36-1.36-0.86-1.83-1.48
			c-0.46-0.63-0.8-1.35-1-2.18c-0.2-0.83-0.3-1.85-0.3-3.08v-9.88c0-0.12,0.03-0.23,0.1-0.32c0.07-0.09,0.19-0.17,0.36-0.23
			s0.41-0.11,0.71-0.14c0.29-0.03,0.66-0.05,1.09-0.05c0.45,0,0.81,0.02,1.1,0.05c0.29,0.03,0.52,0.08,0.7,0.14s0.3,0.14,0.37,0.23
			c0.07,0.09,0.11,0.2,0.11,0.32v9.12c0,0.84,0.05,1.49,0.16,1.94s0.27,0.83,0.5,1.15c0.22,0.32,0.51,0.57,0.85,0.74
			s0.74,0.26,1.2,0.26c0.58,0,1.16-0.21,1.75-0.63s1.21-1.04,1.87-1.85v-10.73c0-0.12,0.03-0.23,0.1-0.32
			c0.07-0.09,0.19-0.17,0.36-0.23s0.41-0.11,0.7-0.14c0.29-0.03,0.66-0.05,1.1-0.05s0.81,0.02,1.1,0.05
			c0.29,0.03,0.52,0.08,0.69,0.14c0.17,0.06,0.29,0.14,0.36,0.23c0.07,0.09,0.11,0.2,0.11,0.32V117.48z"/>
		<path class="st0" d="M1178.53,114.91c0,0.31-0.01,0.58-0.03,0.79c-0.02,0.21-0.04,0.39-0.07,0.53c-0.03,0.14-0.07,0.26-0.11,0.35
			s-0.14,0.21-0.28,0.34s-0.39,0.31-0.74,0.51s-0.75,0.38-1.19,0.53c-0.45,0.16-0.93,0.28-1.46,0.38c-0.53,0.1-1.07,0.14-1.62,0.14
			c-1.24,0-2.34-0.19-3.3-0.58c-0.96-0.39-1.76-0.96-2.42-1.71s-1.14-1.67-1.48-2.76c-0.33-1.09-0.5-2.33-0.5-3.73
			c0-1.62,0.2-3.01,0.61-4.19c0.4-1.18,0.97-2.15,1.69-2.92c0.72-0.77,1.58-1.35,2.57-1.72s2.08-0.56,3.26-0.56
			c0.48,0,0.96,0.04,1.42,0.13c0.46,0.08,0.9,0.2,1.3,0.34c0.4,0.14,0.77,0.31,1.08,0.49c0.32,0.18,0.55,0.34,0.68,0.47
			s0.23,0.24,0.28,0.33c0.05,0.09,0.1,0.21,0.13,0.35s0.05,0.32,0.07,0.53c0.02,0.21,0.03,0.47,0.03,0.77c0,0.7-0.06,1.19-0.18,1.47
			c-0.12,0.28-0.28,0.43-0.47,0.43c-0.21,0-0.42-0.08-0.65-0.25c-0.23-0.17-0.5-0.36-0.81-0.56s-0.69-0.39-1.12-0.56
			c-0.43-0.17-0.95-0.25-1.56-0.25c-1.18,0-2.09,0.46-2.71,1.37s-0.94,2.25-0.94,4.01c0,0.87,0.08,1.63,0.24,2.3
			c0.16,0.66,0.39,1.22,0.7,1.66c0.31,0.45,0.69,0.78,1.16,1c0.46,0.22,1,0.33,1.62,0.33c0.63,0,1.17-0.09,1.62-0.28
			c0.45-0.19,0.85-0.39,1.18-0.62c0.34-0.23,0.62-0.44,0.85-0.62c0.23-0.19,0.42-0.28,0.58-0.28c0.11,0,0.2,0.03,0.27,0.09
			c0.07,0.06,0.13,0.17,0.17,0.33s0.08,0.37,0.1,0.62C1178.52,114.18,1178.53,114.51,1178.53,114.91z"/>
		<path class="st0" d="M1190.63,115.88c0,0.53-0.03,0.94-0.1,1.22c-0.07,0.28-0.15,0.48-0.26,0.6s-0.27,0.22-0.48,0.31
			c-0.21,0.09-0.46,0.17-0.74,0.24s-0.59,0.12-0.92,0.15s-0.67,0.05-1,0.05c-0.91,0-1.69-0.12-2.35-0.34
			c-0.66-0.23-1.21-0.58-1.65-1.06c-0.43-0.48-0.75-1.08-0.96-1.8s-0.31-1.58-0.31-2.57v-8.27h-1.94c-0.23,0-0.4-0.14-0.53-0.43
			c-0.12-0.28-0.18-0.76-0.18-1.42c0-0.35,0.01-0.65,0.04-0.89s0.08-0.43,0.14-0.57s0.14-0.24,0.23-0.3s0.2-0.09,0.32-0.09h1.92
			v-3.6c0-0.12,0.03-0.23,0.1-0.33c0.07-0.1,0.19-0.18,0.36-0.24c0.17-0.07,0.41-0.11,0.71-0.14c0.3-0.03,0.66-0.04,1.1-0.04
			c0.45,0,0.82,0.01,1.11,0.04s0.53,0.08,0.7,0.14c0.17,0.07,0.29,0.15,0.36,0.24c0.07,0.1,0.11,0.21,0.11,0.33v3.6h3.51
			c0.12,0,0.23,0.03,0.32,0.09c0.09,0.06,0.17,0.16,0.23,0.3s0.11,0.33,0.14,0.57s0.04,0.54,0.04,0.89c0,0.66-0.06,1.14-0.18,1.42
			c-0.12,0.28-0.3,0.43-0.52,0.43h-3.53v7.58c0,0.88,0.14,1.54,0.42,1.98c0.28,0.44,0.77,0.66,1.48,0.66c0.24,0,0.46-0.02,0.65-0.06
			c0.19-0.04,0.37-0.09,0.52-0.14s0.28-0.1,0.38-0.14s0.2-0.06,0.28-0.06c0.07,0,0.14,0.02,0.21,0.06c0.07,0.04,0.12,0.13,0.15,0.25
			s0.07,0.3,0.1,0.52C1190.62,115.27,1190.63,115.55,1190.63,115.88z"/>
		<path class="st0" d="M1205.73,95.87c0,0.92-0.19,1.55-0.56,1.9c-0.37,0.35-1.07,0.52-2.08,0.52c-1.03,0-1.72-0.17-2.07-0.51
			s-0.53-0.95-0.53-1.83c0-0.92,0.18-1.55,0.55-1.91c0.37-0.36,1.06-0.53,2.09-0.53c1.01,0,1.7,0.17,2.06,0.52
			C1205.55,94.38,1205.73,94.99,1205.73,95.87z M1205.38,117.48c0,0.12-0.04,0.23-0.11,0.32c-0.07,0.09-0.2,0.17-0.37,0.23
			s-0.41,0.11-0.7,0.14c-0.29,0.03-0.66,0.04-1.1,0.04s-0.81-0.01-1.1-0.04c-0.29-0.03-0.52-0.08-0.7-0.14
			c-0.18-0.06-0.3-0.14-0.37-0.23c-0.07-0.09-0.11-0.2-0.11-0.32v-16.1c0-0.12,0.04-0.23,0.11-0.32c0.07-0.09,0.2-0.17,0.37-0.24
			c0.17-0.07,0.41-0.12,0.7-0.15c0.29-0.04,0.66-0.05,1.1-0.05s0.81,0.02,1.1,0.05c0.29,0.04,0.52,0.09,0.7,0.15
			c0.17,0.07,0.3,0.15,0.37,0.24c0.07,0.09,0.11,0.2,0.11,0.32V117.48z"/>
		<path class="st0" d="M1224.6,117.48c0,0.12-0.04,0.23-0.11,0.32c-0.07,0.09-0.19,0.17-0.36,0.23s-0.4,0.11-0.7,0.14
			c-0.29,0.03-0.66,0.04-1.09,0.04c-0.45,0-0.82-0.01-1.11-0.04c-0.3-0.03-0.53-0.08-0.7-0.14s-0.29-0.14-0.36-0.23
			c-0.07-0.09-0.11-0.2-0.11-0.32v-9.21c0-0.78-0.06-1.4-0.17-1.85c-0.12-0.45-0.28-0.83-0.5-1.15s-0.5-0.57-0.84-0.74
			s-0.75-0.26-1.2-0.26c-0.58,0-1.16,0.21-1.75,0.63c-0.59,0.42-1.21,1.04-1.85,1.85v10.73c0,0.12-0.04,0.23-0.11,0.32
			c-0.07,0.09-0.2,0.17-0.37,0.23c-0.18,0.06-0.41,0.11-0.7,0.14c-0.29,0.03-0.66,0.04-1.1,0.04s-0.81-0.01-1.1-0.04
			c-0.29-0.03-0.52-0.08-0.7-0.14s-0.3-0.14-0.37-0.23c-0.07-0.09-0.11-0.2-0.11-0.32v-16.14c0-0.12,0.03-0.23,0.09-0.32
			c0.06-0.09,0.17-0.17,0.33-0.23c0.16-0.06,0.36-0.11,0.61-0.14s0.56-0.05,0.93-0.05c0.39,0,0.71,0.02,0.96,0.05
			c0.25,0.03,0.45,0.08,0.59,0.14c0.14,0.06,0.24,0.14,0.3,0.23c0.06,0.09,0.09,0.2,0.09,0.32v1.86c0.89-0.96,1.8-1.69,2.72-2.17
			c0.92-0.48,1.88-0.72,2.89-0.72c1.1,0,2.02,0.18,2.78,0.54c0.75,0.36,1.36,0.85,1.83,1.47c0.46,0.62,0.8,1.35,1,2.18
			c0.2,0.83,0.31,1.83,0.31,3V117.48z"/>
		<path class="st0" d="M1245.52,115.88c0,0.53-0.03,0.94-0.1,1.22c-0.07,0.28-0.15,0.48-0.26,0.6s-0.27,0.22-0.48,0.31
			s-0.46,0.17-0.74,0.24c-0.28,0.07-0.59,0.12-0.92,0.15c-0.33,0.04-0.67,0.05-1,0.05c-0.9,0-1.69-0.12-2.35-0.34
			c-0.66-0.23-1.21-0.58-1.65-1.06s-0.75-1.08-0.96-1.8s-0.31-1.58-0.31-2.57v-8.27h-1.94c-0.23,0-0.4-0.14-0.52-0.43
			c-0.12-0.28-0.18-0.76-0.18-1.42c0-0.35,0.02-0.65,0.05-0.89c0.03-0.24,0.08-0.43,0.14-0.57c0.06-0.14,0.14-0.24,0.23-0.3
			c0.09-0.06,0.2-0.09,0.32-0.09h1.92v-3.6c0-0.12,0.03-0.23,0.1-0.33c0.07-0.1,0.19-0.18,0.36-0.24c0.17-0.07,0.41-0.11,0.71-0.14
			s0.66-0.04,1.09-0.04c0.45,0,0.82,0.01,1.11,0.04c0.29,0.03,0.53,0.08,0.7,0.14c0.17,0.07,0.29,0.15,0.36,0.24
			c0.07,0.1,0.11,0.21,0.11,0.33v3.6h3.51c0.12,0,0.23,0.03,0.32,0.09s0.17,0.16,0.23,0.3c0.06,0.14,0.11,0.33,0.14,0.57
			c0.03,0.24,0.04,0.54,0.04,0.89c0,0.66-0.06,1.14-0.18,1.42c-0.12,0.28-0.3,0.43-0.53,0.43h-3.53v7.58c0,0.88,0.14,1.54,0.42,1.98
			s0.77,0.66,1.48,0.66c0.24,0,0.46-0.02,0.65-0.06c0.19-0.04,0.36-0.09,0.52-0.14c0.15-0.05,0.28-0.1,0.38-0.14s0.2-0.06,0.28-0.06
			c0.07,0,0.14,0.02,0.21,0.06s0.12,0.13,0.15,0.25s0.07,0.3,0.1,0.52C1245.51,115.27,1245.52,115.55,1245.52,115.88z"/>
		<path class="st0" d="M1263.49,117.48c0,0.12-0.04,0.23-0.11,0.32c-0.07,0.09-0.19,0.17-0.36,0.23s-0.4,0.11-0.7,0.14
			c-0.29,0.03-0.66,0.04-1.09,0.04c-0.45,0-0.82-0.01-1.11-0.04c-0.3-0.03-0.53-0.08-0.7-0.14s-0.29-0.14-0.36-0.23
			c-0.07-0.09-0.11-0.2-0.11-0.32v-9.21c0-0.78-0.06-1.4-0.17-1.85c-0.12-0.45-0.28-0.83-0.5-1.15s-0.5-0.57-0.84-0.74
			s-0.75-0.26-1.2-0.26c-0.58,0-1.16,0.21-1.75,0.63c-0.59,0.42-1.21,1.04-1.85,1.85v10.73c0,0.12-0.04,0.23-0.11,0.32
			c-0.07,0.09-0.2,0.17-0.37,0.23c-0.18,0.06-0.41,0.11-0.7,0.14c-0.29,0.03-0.66,0.04-1.1,0.04s-0.81-0.01-1.1-0.04
			c-0.29-0.03-0.52-0.08-0.7-0.14s-0.3-0.14-0.37-0.23c-0.07-0.09-0.11-0.2-0.11-0.32v-23.8c0-0.12,0.04-0.23,0.11-0.33
			s0.2-0.18,0.37-0.24s0.41-0.12,0.7-0.15c0.29-0.04,0.66-0.05,1.1-0.05s0.81,0.02,1.1,0.05c0.29,0.04,0.52,0.09,0.7,0.15
			c0.17,0.07,0.3,0.15,0.37,0.24c0.07,0.1,0.11,0.21,0.11,0.33v8.92c0.78-0.77,1.58-1.35,2.4-1.73s1.66-0.57,2.54-0.57
			c1.1,0,2.02,0.18,2.78,0.54c0.75,0.36,1.36,0.86,1.83,1.48c0.46,0.63,0.8,1.36,1,2.2c0.2,0.84,0.31,1.85,0.31,3.05V117.48z"/>
		<path class="st0" d="M1282.13,108.94c0,0.55-0.12,0.97-0.37,1.23c-0.25,0.27-0.59,0.4-1.02,0.4h-9.83c0,0.69,0.08,1.31,0.24,1.87
			c0.16,0.56,0.42,1.04,0.78,1.43c0.36,0.39,0.81,0.69,1.38,0.9c0.56,0.21,1.23,0.31,2.02,0.31c0.8,0,1.5-0.06,2.1-0.17
			c0.6-0.12,1.12-0.24,1.57-0.38s0.81-0.27,1.09-0.38c0.29-0.11,0.53-0.17,0.71-0.17c0.11,0,0.2,0.02,0.27,0.06
			c0.07,0.04,0.13,0.12,0.18,0.23s0.08,0.26,0.1,0.46c0.02,0.2,0.03,0.45,0.03,0.75c0,0.27-0.01,0.49-0.02,0.68
			c-0.01,0.19-0.03,0.35-0.05,0.48c-0.02,0.13-0.06,0.24-0.11,0.33c-0.05,0.09-0.11,0.18-0.19,0.26s-0.29,0.2-0.64,0.34
			s-0.8,0.29-1.34,0.42s-1.16,0.26-1.86,0.36c-0.7,0.1-1.45,0.15-2.24,0.15c-1.44,0-2.69-0.18-3.77-0.54
			c-1.08-0.36-1.98-0.91-2.71-1.65c-0.72-0.74-1.26-1.66-1.62-2.79c-0.36-1.12-0.53-2.44-0.53-3.95c0-1.44,0.19-2.73,0.56-3.88
			c0.37-1.15,0.92-2.13,1.63-2.93c0.71-0.8,1.58-1.42,2.6-1.84s2.17-0.63,3.45-0.63c1.35,0,2.51,0.2,3.47,0.6
			c0.96,0.4,1.75,0.95,2.36,1.66c0.62,0.71,1.07,1.54,1.36,2.51c0.29,0.96,0.43,2.01,0.43,3.15V108.94z M1277.72,107.63
			c0.04-1.28-0.22-2.28-0.77-3.01c-0.55-0.73-1.4-1.09-2.54-1.09c-0.58,0-1.08,0.11-1.51,0.33c-0.43,0.22-0.78,0.51-1.07,0.88
			c-0.28,0.37-0.5,0.8-0.65,1.3c-0.15,0.5-0.24,1.03-0.26,1.6H1277.72z"/>
		<path class="st0" d="M1302.51,95.18c0,0.35-0.01,0.63-0.04,0.84c-0.02,0.21-0.06,0.37-0.11,0.49c-0.05,0.12-0.1,0.19-0.16,0.24
			c-0.06,0.04-0.13,0.06-0.2,0.06c-0.08,0-0.18-0.02-0.28-0.06c-0.1-0.04-0.23-0.09-0.38-0.14c-0.15-0.05-0.33-0.09-0.53-0.14
			c-0.21-0.04-0.45-0.06-0.72-0.06c-0.33,0-0.61,0.05-0.84,0.15s-0.43,0.27-0.59,0.49c-0.16,0.22-0.27,0.51-0.34,0.87
			c-0.07,0.36-0.11,0.79-0.11,1.31v1.48h2.95c0.11,0,0.21,0.03,0.3,0.09c0.09,0.06,0.17,0.16,0.23,0.3s0.11,0.33,0.14,0.57
			s0.05,0.54,0.05,0.89c0,0.66-0.06,1.14-0.18,1.42c-0.12,0.28-0.3,0.43-0.52,0.43h-2.95v13.06c0,0.12-0.04,0.23-0.11,0.32
			c-0.07,0.09-0.19,0.17-0.36,0.23s-0.4,0.11-0.71,0.14s-0.67,0.04-1.1,0.04c-0.43,0-0.8-0.01-1.09-0.04
			c-0.3-0.03-0.53-0.08-0.71-0.14s-0.3-0.14-0.36-0.23c-0.07-0.09-0.1-0.2-0.1-0.32v-13.06h-2.03c-0.23,0-0.4-0.14-0.52-0.43
			c-0.12-0.28-0.17-0.76-0.17-1.42c0-0.35,0.01-0.65,0.04-0.89s0.07-0.43,0.13-0.57s0.13-0.24,0.22-0.3
			c0.09-0.06,0.2-0.09,0.32-0.09h2.01v-1.36c0-1.1,0.11-2.06,0.33-2.89s0.56-1.51,1.02-2.06c0.46-0.55,1.06-0.96,1.77-1.24
			c0.72-0.28,1.57-0.42,2.54-0.42c0.47,0,0.92,0.04,1.34,0.12c0.42,0.08,0.75,0.16,1,0.25c0.24,0.09,0.4,0.17,0.49,0.25
			c0.08,0.08,0.15,0.19,0.21,0.34c0.05,0.15,0.09,0.34,0.12,0.58C1302.5,94.54,1302.51,94.83,1302.51,95.18z"/>
		<path class="st0" d="M1319.07,117.48c0,0.12-0.03,0.23-0.09,0.32c-0.06,0.09-0.17,0.17-0.32,0.23c-0.15,0.06-0.35,0.11-0.6,0.14
			c-0.25,0.03-0.56,0.04-0.93,0.04c-0.4,0-0.72-0.01-0.97-0.04c-0.25-0.03-0.44-0.08-0.59-0.14c-0.15-0.06-0.25-0.14-0.31-0.23
			c-0.06-0.09-0.09-0.2-0.09-0.32v-1.86c-0.89,0.96-1.8,1.69-2.72,2.17s-1.88,0.72-2.87,0.72c-1.11,0-2.04-0.18-2.8-0.54
			c-0.75-0.36-1.36-0.86-1.83-1.48c-0.46-0.63-0.8-1.35-1-2.18c-0.2-0.83-0.3-1.85-0.3-3.08v-9.88c0-0.12,0.03-0.23,0.1-0.32
			c0.07-0.09,0.19-0.17,0.36-0.23s0.41-0.11,0.71-0.14s0.66-0.05,1.09-0.05c0.45,0,0.81,0.02,1.1,0.05c0.29,0.03,0.52,0.08,0.7,0.14
			s0.3,0.14,0.37,0.23c0.07,0.09,0.11,0.2,0.11,0.32v9.12c0,0.84,0.05,1.49,0.16,1.94c0.11,0.45,0.27,0.83,0.5,1.15
			c0.22,0.32,0.51,0.57,0.85,0.74s0.75,0.26,1.2,0.26c0.58,0,1.16-0.21,1.75-0.63c0.58-0.42,1.21-1.04,1.87-1.85v-10.73
			c0-0.12,0.03-0.23,0.1-0.32c0.07-0.09,0.19-0.17,0.36-0.23s0.41-0.11,0.7-0.14c0.29-0.03,0.66-0.05,1.1-0.05
			c0.45,0,0.81,0.02,1.1,0.05c0.29,0.03,0.52,0.08,0.69,0.14s0.29,0.14,0.36,0.23c0.07,0.09,0.11,0.2,0.11,0.32V117.48z"/>
		<path class="st0" d="M1332.46,115.88c0,0.53-0.03,0.94-0.1,1.22c-0.07,0.28-0.15,0.48-0.26,0.6s-0.27,0.22-0.48,0.31
			s-0.46,0.17-0.74,0.24c-0.28,0.07-0.59,0.12-0.92,0.15c-0.33,0.04-0.67,0.05-1,0.05c-0.9,0-1.69-0.12-2.35-0.34
			c-0.66-0.23-1.21-0.58-1.65-1.06s-0.75-1.08-0.96-1.8s-0.31-1.58-0.31-2.57v-8.27h-1.94c-0.23,0-0.4-0.14-0.52-0.43
			c-0.12-0.28-0.18-0.76-0.18-1.42c0-0.35,0.02-0.65,0.05-0.89c0.03-0.24,0.08-0.43,0.14-0.57c0.06-0.14,0.14-0.24,0.23-0.3
			c0.09-0.06,0.2-0.09,0.32-0.09h1.92v-3.6c0-0.12,0.03-0.23,0.1-0.33c0.07-0.1,0.19-0.18,0.36-0.24c0.17-0.07,0.41-0.11,0.71-0.14
			s0.66-0.04,1.09-0.04c0.45,0,0.82,0.01,1.11,0.04c0.29,0.03,0.53,0.08,0.7,0.14c0.17,0.07,0.29,0.15,0.36,0.24
			c0.07,0.1,0.11,0.21,0.11,0.33v3.6h3.51c0.12,0,0.23,0.03,0.32,0.09s0.17,0.16,0.23,0.3c0.06,0.14,0.11,0.33,0.14,0.57
			c0.03,0.24,0.04,0.54,0.04,0.89c0,0.66-0.06,1.14-0.18,1.42c-0.12,0.28-0.3,0.43-0.53,0.43h-3.53v7.58c0,0.88,0.14,1.54,0.42,1.98
			s0.77,0.66,1.48,0.66c0.24,0,0.46-0.02,0.65-0.06c0.19-0.04,0.36-0.09,0.52-0.14c0.15-0.05,0.28-0.1,0.38-0.14s0.2-0.06,0.28-0.06
			c0.07,0,0.14,0.02,0.21,0.06s0.12,0.13,0.15,0.25s0.07,0.3,0.1,0.52C1332.44,115.27,1332.46,115.55,1332.46,115.88z"/>
		<path class="st0" d="M1350.32,117.48c0,0.12-0.03,0.23-0.09,0.32c-0.06,0.09-0.17,0.17-0.32,0.23c-0.15,0.06-0.35,0.11-0.6,0.14
			c-0.25,0.03-0.56,0.04-0.93,0.04c-0.4,0-0.72-0.01-0.97-0.04c-0.25-0.03-0.44-0.08-0.59-0.14c-0.15-0.06-0.25-0.14-0.31-0.23
			c-0.06-0.09-0.09-0.2-0.09-0.32v-1.86c-0.89,0.96-1.8,1.69-2.72,2.17s-1.88,0.72-2.87,0.72c-1.11,0-2.04-0.18-2.8-0.54
			c-0.75-0.36-1.36-0.86-1.83-1.48c-0.46-0.63-0.8-1.35-1-2.18c-0.2-0.83-0.3-1.85-0.3-3.08v-9.88c0-0.12,0.03-0.23,0.1-0.32
			c0.07-0.09,0.19-0.17,0.36-0.23s0.41-0.11,0.71-0.14s0.66-0.05,1.09-0.05c0.45,0,0.81,0.02,1.1,0.05c0.29,0.03,0.52,0.08,0.7,0.14
			s0.3,0.14,0.37,0.23c0.07,0.09,0.11,0.2,0.11,0.32v9.12c0,0.84,0.05,1.49,0.16,1.94c0.11,0.45,0.27,0.83,0.5,1.15
			c0.22,0.32,0.51,0.57,0.85,0.74s0.75,0.26,1.2,0.26c0.58,0,1.16-0.21,1.75-0.63c0.58-0.42,1.21-1.04,1.87-1.85v-10.73
			c0-0.12,0.03-0.23,0.1-0.32c0.07-0.09,0.19-0.17,0.36-0.23s0.41-0.11,0.7-0.14c0.29-0.03,0.66-0.05,1.1-0.05
			c0.45,0,0.81,0.02,1.1,0.05c0.29,0.03,0.52,0.08,0.69,0.14s0.29,0.14,0.36,0.23c0.07,0.09,0.11,0.2,0.11,0.32V117.48z"/>
		<path class="st0" d="M1364.53,102.84c0,0.43-0.01,0.79-0.04,1.07c-0.02,0.28-0.06,0.49-0.11,0.65c-0.05,0.16-0.11,0.27-0.19,0.33
			c-0.08,0.06-0.18,0.09-0.3,0.09c-0.1,0-0.21-0.02-0.33-0.06c-0.12-0.04-0.26-0.09-0.41-0.14c-0.15-0.05-0.32-0.09-0.5-0.14
			c-0.18-0.04-0.38-0.06-0.6-0.06c-0.25,0-0.51,0.05-0.76,0.15c-0.25,0.1-0.52,0.26-0.79,0.48s-0.55,0.51-0.85,0.87
			c-0.29,0.36-0.61,0.81-0.95,1.34v10.06c0,0.12-0.04,0.23-0.11,0.32c-0.07,0.09-0.2,0.17-0.37,0.23c-0.18,0.06-0.41,0.11-0.7,0.14
			c-0.29,0.03-0.66,0.04-1.1,0.04s-0.81-0.01-1.1-0.04c-0.29-0.03-0.52-0.08-0.7-0.14s-0.3-0.14-0.37-0.23
			c-0.07-0.09-0.11-0.2-0.11-0.32v-16.14c0-0.12,0.03-0.23,0.09-0.32c0.06-0.09,0.17-0.17,0.33-0.23c0.16-0.06,0.36-0.11,0.61-0.14
			s0.56-0.05,0.93-0.05c0.39,0,0.71,0.02,0.96,0.05c0.25,0.03,0.45,0.08,0.59,0.14c0.14,0.06,0.24,0.14,0.3,0.23
			c0.06,0.09,0.09,0.2,0.09,0.32v2.01c0.42-0.6,0.82-1.1,1.19-1.49c0.37-0.39,0.73-0.7,1.07-0.93c0.34-0.23,0.68-0.39,1.01-0.48
			c0.34-0.09,0.68-0.14,1.01-0.14c0.16,0,0.33,0.01,0.51,0.03c0.18,0.02,0.37,0.05,0.56,0.09c0.19,0.04,0.36,0.09,0.51,0.14
			c0.14,0.05,0.25,0.11,0.32,0.17s0.11,0.13,0.14,0.2s0.06,0.17,0.08,0.3c0.02,0.13,0.04,0.32,0.05,0.57
			C1364.52,102.06,1364.53,102.4,1364.53,102.84z"/>
		<path class="st0" d="M1381.5,108.94c0,0.55-0.12,0.97-0.37,1.23c-0.25,0.27-0.59,0.4-1.02,0.4h-9.83c0,0.69,0.08,1.31,0.24,1.87
			c0.16,0.56,0.42,1.04,0.78,1.43c0.36,0.39,0.81,0.69,1.38,0.9c0.56,0.21,1.23,0.31,2.02,0.31c0.8,0,1.5-0.06,2.1-0.17
			c0.6-0.12,1.12-0.24,1.57-0.38s0.81-0.27,1.09-0.38c0.29-0.11,0.53-0.17,0.71-0.17c0.11,0,0.2,0.02,0.27,0.06
			c0.07,0.04,0.13,0.12,0.18,0.23s0.08,0.26,0.1,0.46c0.02,0.2,0.03,0.45,0.03,0.75c0,0.27-0.01,0.49-0.02,0.68
			c-0.01,0.19-0.03,0.35-0.05,0.48c-0.02,0.13-0.06,0.24-0.11,0.33c-0.05,0.09-0.11,0.18-0.19,0.26s-0.29,0.2-0.64,0.34
			s-0.8,0.29-1.34,0.42s-1.16,0.26-1.86,0.36c-0.7,0.1-1.45,0.15-2.24,0.15c-1.44,0-2.69-0.18-3.77-0.54
			c-1.08-0.36-1.98-0.91-2.71-1.65c-0.72-0.74-1.26-1.66-1.62-2.79c-0.36-1.12-0.53-2.44-0.53-3.95c0-1.44,0.19-2.73,0.56-3.88
			c0.37-1.15,0.92-2.13,1.63-2.93c0.71-0.8,1.58-1.42,2.6-1.84s2.17-0.63,3.45-0.63c1.35,0,2.51,0.2,3.47,0.6
			c0.96,0.4,1.75,0.95,2.36,1.66c0.62,0.71,1.07,1.54,1.36,2.51c0.29,0.96,0.43,2.01,0.43,3.15V108.94z M1377.08,107.63
			c0.04-1.28-0.22-2.28-0.77-3.01c-0.55-0.73-1.4-1.09-2.54-1.09c-0.58,0-1.08,0.11-1.51,0.33c-0.43,0.22-0.78,0.51-1.07,0.88
			c-0.28,0.37-0.5,0.8-0.65,1.3c-0.15,0.5-0.24,1.03-0.26,1.6H1377.08z"/>
		<path class="st0" d="M1389.86,115.49c0,1.12-0.2,1.88-0.59,2.26c-0.39,0.39-1.09,0.58-2.11,0.58s-1.71-0.19-2.1-0.57
			c-0.39-0.38-0.58-1.1-0.58-2.16c0-1.13,0.2-1.89,0.59-2.28c0.39-0.39,1.1-0.58,2.13-0.58c1,0,1.69,0.19,2.08,0.57
			C1389.67,113.69,1389.86,114.41,1389.86,115.49z"/>
	</g>
</g>
<line class="st3" x1="623.48" y1="131.03" x2="623.77" y2="3.76"/>
<g>
	<g id="XMLID_00000084494433310818200680000003864608468909475489_">
		<g>
			<polygon class="st2" points="792.75,51.81 813.07,44.67 813.07,92.82 772.41,107.08 772.41,58.93 			"/>
			<polygon class="st2" points="813.07,44.67 792.75,51.81 752.07,34.84 772.41,27.71 792.75,36.19 			"/>
			<polygon class="st2" points="792.75,51.81 772.41,58.93 731.73,41.96 752.07,34.84 			"/>
			<polygon class="st2" points="772.41,58.93 772.41,107.08 731.73,90.11 731.73,41.96 			"/>
		</g>
		<g>
			<line class="st4" x1="752.07" y1="34.84" x2="731.73" y2="41.96"/>
			<polyline class="st4" points="772.41,58.93 792.75,51.81 752.07,34.84 772.41,27.71 792.75,36.19 813.07,44.67 792.75,51.81 
				792.75,73.87 			"/>
			<polyline class="st4" points="772.41,107.08 813.07,92.82 813.07,44.67 			"/>
			<polygon class="st4" points="772.41,107.08 731.73,90.11 731.73,41.96 772.41,58.93 			"/>
		</g>
	</g>
</g>
</svg>
